<?xml version="1.0" encoding="utf-8" ?>
<svg baseProfile="tiny" height="600px" version="1.2" viewBox="-50,-500,400,400" width="800px" xmlns="http://www.w3.org/2000/svg" xmlns:ev="http://www.w3.org/2001/xml-events" xmlns:xlink="http://www.w3.org/1999/xlink"><defs /><rect fill="white" height="400" width="400" x="-50" y="-500" /><g id="objects" transform="scale(1, -1)"><circle cx="0.0" cy="300" fill="orange" r="5" /><path d="M 168.15584882712574,222.96103779321857 L 191.84415117287426,217.03896220678143 A 200.00000000000009,200.00000000000009 0 0 1 231.84415117287426,377.03896220678143 L 208.15584882712574,382.96103779321857 A 200.00000000000003,200.00000000000003 0 0 1 168.15584882712574,222.96103779321857 Z" fill="cyan" fill-opacity="0.3" stroke="navy" stroke-width="2" /><line stroke="black" stroke-width="3" x1="300" x2="300" y1="100" y2="500" /></g><g id="rays" transform="scale(1, -1)"><line id="ray-b1.000" stroke="red" stroke-opacity="1.0" stroke-width="1" x1="0.0" x2="8.3825" y1="300.0" y2="500.0" /><line id="ray-b1.000" stroke="red" stroke-opacity="1.0" stroke-width="1" x1="0.0" x2="16.7945" y1="300.0" y2="500.0" /><line id="ray-b1.000" stroke="red" stroke-opacity="1.0" stroke-width="1" x1="0.0" x2="25.2659" y1="300.0" y2="500.0" /><line id="ray-b1.000" stroke="red" stroke-opacity="1.0" stroke-width="1" x1="0.0" x2="33.8275" y1="300.0" y2="500.0" /><line id="ray-b1.000" stroke="red" stroke-opacity="1.0" stroke-width="1" x1="0.0" x2="42.5113" y1="300.0" y2="500.0" /><line id="ray-b1.000" stroke="red" stroke-opacity="1.0" stroke-width="1" x1="0.0" x2="51.3513" y1="300.0" y2="500.0" /><line id="ray-b1.000" stroke="red" stroke-opacity="1.0" stroke-width="1" x1="0.0" x2="60.3836" y1="300.0" y2="500.0" /><line id="ray-b1.000" stroke="red" stroke-opacity="1.0" stroke-width="1" x1="0.0" x2="69.6474" y1="300.0" y2="500.0" /><line id="ray-b1.000" stroke="red" stroke-opacity="1.0" stroke-width="1" x1="0.0" x2="79.1856" y1="300.0" y2="500.0" /><line id="ray-b1.000" stroke="red" stroke-opacity="1.0" stroke-width="1" x1="0.0" x2="89.0457" y1="300.0" y2="500.0" /><line id="ray-b1.000" stroke="red" stroke-opacity="1.0" stroke-width="1" x1="0.0" x2="99.2809" y1="300.0" y2="500.0" /><line id="ray-b1.000" stroke="red" stroke-opacity="1.0" stroke-width="1" x1="0.0" x2="109.9509" y1="300.0" y2="500.0" /><line id="ray-b1.000" stroke="red" stroke-opacity="1.0" stroke-width="1" x1="0.0" x2="121.1243" y1="300.0" y2="500.0" /><line id="ray-b1.000" stroke="red" stroke-opacity="1.0" stroke-width="1" x1="0.0" x2="132.8797" y1="300.0" y2="500.0" /><line id="ray-b1.000" stroke="red" stroke-opacity="1.0" stroke-width="1" x1="0.0" x2="145.3085" y1="300.0" y2="500.0" /><line id="ray-b1.000" stroke="red" stroke-opacity="1.0" stroke-width="1" x1="0.0" x2="158.518" y1="300.0" y2="500.0" /><line id="ray-b1.000" stroke="red" stroke-opacity="1.0" stroke-width="1" x1="0.0" x2="172.6354" y1="300.0" y2="500.0" /><line id="ray-b1.000" stroke="red" stroke-opacity="1.0" stroke-width="1" x1="0.0" x2="187.8125" y1="300.0" y2="500.0" /><line id="ray-b1.000" stroke="red" stroke-opacity="1.0" stroke-width="1" x1="0.0" x2="204.2333" y1="300.0" y2="500.0" /><line id="ray-b1.000" stroke="red" stroke-opacity="1.0" stroke-width="1" x1="0.0" x2="222.1225" y1="300.0" y2="500.0" /><line id="ray-b1.000" stroke="red" stroke-opacity="1.0" stroke-width="1" x1="0.0" x2="241.7585" y1="300.0" y2="500.0" /><line id="ray-b1.000" stroke="red" stroke-opacity="1.0" stroke-width="1" x1="0.0" x2="263.4903" y1="300.0" y2="500.0" /><line id="ray-b1.000" stroke="red" stroke-opacity="1.0" stroke-width="1" x1="0.0" x2="287.7623" y1="300.0" y2="500.0" /><line id="ray-b1.000" stroke="red" stroke-opacity="1.0" stroke-width="1" x1="0.0" x2="300.0" y1="300.0" y2="490.3858" /><line id="ray-b1.000" stroke="red" stroke-opacity="1.0" stroke-width="1" x1="0.0" x2="300.0" y1="300.0" y2="473.2051" /><line id="ray-b1.000" stroke="red" stroke-opacity="1.0" stroke-width="1" x1="0.0" x2="300.0" y1="300.0" y2="456.8362" /><line id="ray-b1.000" stroke="red" stroke-opacity="1.0" stroke-width="1" x1="0.0" x2="300.0" y1="300.0" y2="441.1693" /><line id="ray-b1.000" stroke="red" stroke-opacity="1.0" stroke-width="1" x1="0.0" x2="300.0" y1="300.0" y2="426.1084" /><line id="ray-b1.000" stroke="red" stroke-opacity="1.0" stroke-width="1" x1="0.0" x2="202.3457" y1="300.0" y2="375.2517" /><line id="ray-b1.000" stroke="red" stroke-opacity="1.0" stroke-width="1" x1="0.0" x2="194.3156" y1="300.0" y2="363.137" /><line id="ray-b1.000" stroke="red" stroke-opacity="1.0" stroke-width="1" x1="0.0" x2="188.2853" y1="300.0" y2="352.5702" /><line id="ray-b1.000" stroke="red" stroke-opacity="1.0" stroke-width="1" x1="0.0" x2="183.5504" y1="300.0" y2="343.0514" /><line id="ray-b1.000" stroke="red" stroke-opacity="1.0" stroke-width="1" x1="0.0" x2="179.7289" y1="300.0" y2="334.2851" /><line id="ray-b1.000" stroke="red" stroke-opacity="1.0" stroke-width="1" x1="0.0" x2="176.5903" y1="300.0" y2="326.0766" /><line id="ray-b1.000" stroke="red" stroke-opacity="1.0" stroke-width="1" x1="0.0" x2="173.9854" y1="300.0" y2="318.2866" /><line id="ray-b1.000" stroke="red" stroke-opacity="1.0" stroke-width="1" x1="0.0" x2="171.8134" y1="300.0" y2="310.8096" /><line id="ray-b1.000" stroke="red" stroke-opacity="1.0" stroke-width="1" x1="0.0" x2="170.0046" y1="300.0" y2="303.5611" /><line id="ray-b1.000" stroke="red" stroke-opacity="1.0" stroke-width="1" x1="0.0" x2="168.5098" y1="300.0" y2="296.4702" /><line id="ray-b1.000" stroke="red" stroke-opacity="1.0" stroke-width="1" x1="0.0" x2="167.2954" y1="300.0" y2="289.4747" /><line id="ray-b1.000" stroke="red" stroke-opacity="1.0" stroke-width="1" x1="0.0" x2="166.3392" y1="300.0" y2="282.517" /><line id="ray-b1.000" stroke="red" stroke-opacity="1.0" stroke-width="1" x1="0.0" x2="165.6288" y1="300.0" y2="275.5421" /><line id="ray-b1.000" stroke="red" stroke-opacity="1.0" stroke-width="1" x1="0.0" x2="165.1608" y1="300.0" y2="268.4939" /><line id="ray-b1.000" stroke="red" stroke-opacity="1.0" stroke-width="1" x1="0.0" x2="164.9404" y1="300.0" y2="261.3136" /><line id="ray-b1.000" stroke="red" stroke-opacity="1.0" stroke-width="1" x1="0.0" x2="164.9826" y1="300.0" y2="253.936" /><line id="ray-b1.000" stroke="red" stroke-opacity="1.0" stroke-width="1" x1="0.0" x2="165.3142" y1="300.0" y2="246.2862" /><line id="ray-b1.000" stroke="red" stroke-opacity="1.0" stroke-width="1" x1="0.0" x2="165.9771" y1="300.0" y2="238.2737" /><line id="ray-b1.000" stroke="red" stroke-opacity="1.0" stroke-width="1" x1="0.0" x2="167.0356" y1="300.0" y2="229.7847" /><line id="ray-b1.000" stroke="red" stroke-opacity="1.0" stroke-width="1" x1="0.0" x2="300.0" y1="300.0" y2="158.8307" /><line id="ray-b1.000" stroke="red" stroke-opacity="1.0" stroke-width="1" x1="0.0" x2="300.0" y1="300.0" y2="143.1638" /><line id="ray-b1.000" stroke="red" stroke-opacity="1.0" stroke-width="1" x1="0.0" x2="300.0" y1="300.0" y2="126.7949" /><line id="ray-b1.000" stroke="red" stroke-opacity="1.0" stroke-width="1" x1="0.0" x2="300.0" y1="300.0" y2="109.6142" /><line id="ray-b1.000" stroke="red" stroke-opacity="1.0" stroke-width="1" x1="0.0" x2="287.7623" y1="300.0" y2="100.0" /><line id="ray-b1.000" stroke="red" stroke-opacity="1.0" stroke-width="1" x1="0.0" x2="263.4903" y1="300.0" y2="100.0" /><line id="ray-b1.000" stroke="red" stroke-opacity="1.0" stroke-width="1" x1="0.0" x2="241.7585" y1="300.0" y2="100.0" /><line id="ray-b1.000" stroke="red" stroke-opacity="1.0" stroke-width="1" x1="0.0" x2="222.1225" y1="300.0" y2="100.0" /><line id="ray-b1.000" stroke="red" stroke-opacity="1.0" stroke-width="1" x1="0.0" x2="204.2333" y1="300.0" y2="100.0" /><line id="ray-b1.000" stroke="red" stroke-opacity="1.0" stroke-width="1" x1="0.0" x2="187.8125" y1="300.0" y2="100.0" /><line id="ray-b1.000" stroke="red" stroke-opacity="1.0" stroke-width="1" x1="0.0" x2="172.6354" y1="300.0" y2="100.0" /><line id="ray-b1.000" stroke="red" stroke-opacity="1.0" stroke-width="1" x1="0.0" x2="158.518" y1="300.0" y2="100.0" /><line id="ray-b1.000" stroke="red" stroke-opacity="1.0" stroke-width="1" x1="0.0" x2="145.3085" y1="300.0" y2="100.0" /><line id="ray-b1.000" stroke="red" stroke-opacity="1.0" stroke-width="1" x1="0.0" x2="132.8797" y1="300.0" y2="100.0" /><line id="ray-b1.000" stroke="red" stroke-opacity="1.0" stroke-width="1" x1="0.0" x2="121.1243" y1="300.0" y2="100.0" /><line id="ray-b1.000" stroke="red" stroke-opacity="1.0" stroke-width="1" x1="0.0" x2="109.9509" y1="300.0" y2="100.0" /><line id="ray-b1.000" stroke="red" stroke-opacity="1.0" stroke-width="1" x1="0.0" x2="99.2809" y1="300.0" y2="100.0" /><line id="ray-b1.000" stroke="red" stroke-opacity="1.0" stroke-width="1" x1="0.0" x2="89.0457" y1="300.0" y2="100.0" /><line id="ray-b1.000" stroke="red" stroke-opacity="1.0" stroke-width="1" x1="0.0" x2="79.1856" y1="300.0" y2="100.0" /><line id="ray-b1.000" stroke="red" stroke-opacity="1.0" stroke-width="1" x1="0.0" x2="69.6474" y1="300.0" y2="100.0" /><line id="ray-b1.000" stroke="red" stroke-opacity="1.0" stroke-width="1" x1="0.0" x2="60.3836" y1="300.0" y2="100.0" /><line id="ray-b1.000" stroke="red" stroke-opacity="1.0" stroke-width="1" x1="0.0" x2="51.3513" y1="300.0" y2="100.0" /><line id="ray-b1.000" stroke="red" stroke-opacity="1.0" stroke-width="1" x1="0.0" x2="42.5113" y1="300.0" y2="100.0" /><line id="ray-b1.000" stroke="red" stroke-opacity="1.0" stroke-width="1" x1="0.0" x2="33.8275" y1="300.0" y2="100.0" /><line id="ray-b1.000" stroke="red" stroke-opacity="1.0" stroke-width="1" x1="0.0" x2="25.2659" y1="300.0" y2="100.0" /><line id="ray-b1.000" stroke="red" stroke-opacity="1.0" stroke-width="1" x1="0.0" x2="16.7945" y1="300.0" y2="100.0" /><line id="ray-b1.000" stroke="red" stroke-opacity="1.0" stroke-width="1" x1="0.0" x2="8.3825" y1="300.0" y2="100.0" /><line id="ray-b1.000" stroke="red" stroke-opacity="1.0" stroke-width="1" x1="0.0" x2="0.0" y1="300.0" y2="100.0" /><line id="ray-b1.000" stroke="red" stroke-opacity="1.0" stroke-width="1" x1="0.0" x2="-8.3825" y1="300.0" y2="100.0" /><line id="ray-b1.000" stroke="red" stroke-opacity="1.0" stroke-width="1" x1="0.0" x2="-16.7945" y1="300.0" y2="100.0" /><line id="ray-b1.000" stroke="red" stroke-opacity="1.0" stroke-width="1" x1="0.0" x2="-25.2659" y1="300.0" y2="100.0" /><line id="ray-b1.000" stroke="red" stroke-opacity="1.0" stroke-width="1" x1="0.0" x2="-33.8275" y1="300.0" y2="100.0" /><line id="ray-b1.000" stroke="red" stroke-opacity="1.0" stroke-width="1" x1="0.0" x2="-42.5113" y1="300.0" y2="100.0" /><line id="ray-b1.000" stroke="red" stroke-opacity="1.0" stroke-width="1" x1="0.0" x2="-50.0" y1="300.0" y2="105.2629" /><line id="ray-b1.000" stroke="red" stroke-opacity="1.0" stroke-width="1" x1="0.0" x2="-50.0" y1="300.0" y2="134.392" /><line id="ray-b1.000" stroke="red" stroke-opacity="1.0" stroke-width="1" x1="0.0" x2="-50.0" y1="300.0" y2="156.4196" /><line id="ray-b1.000" stroke="red" stroke-opacity="1.0" stroke-width="1" x1="0.0" x2="-50.0" y1="300.0" y2="173.7144" /><line id="ray-b1.000" stroke="red" stroke-opacity="1.0" stroke-width="1" x1="0.0" x2="-50.0" y1="300.0" y2="187.6982" /><line id="ray-b1.000" stroke="red" stroke-opacity="1.0" stroke-width="1" x1="0.0" x2="-50.0" y1="300.0" y2="199.2757" /><line id="ray-b1.000" stroke="red" stroke-opacity="1.0" stroke-width="1" x1="0.0" x2="-50.0" y1="300.0" y2="209.0503" /><line id="ray-b1.000" stroke="red" stroke-opacity="1.0" stroke-width="1" x1="0.0" x2="-50.0" y1="300.0" y2="217.4402" /><line id="ray-b1.000" stroke="red" stroke-opacity="1.0" stroke-width="1" x1="0.0" x2="-50.0" y1="300.0" y2="224.744" /><line id="ray-b1.000" stroke="red" stroke-opacity="1.0" stroke-width="1" x1="0.0" x2="-50.0" y1="300.0" y2="231.1809" /><line id="ray-b1.000" stroke="red" stroke-opacity="1.0" stroke-width="1" x1="0.0" x2="-50.0" y1="300.0" y2="236.9157" /><line id="ray-b1.000" stroke="red" stroke-opacity="1.0" stroke-width="1" x1="0.0" x2="-50.0" y1="300.0" y2="242.0744" /><line id="ray-b1.000" stroke="red" stroke-opacity="1.0" stroke-width="1" x1="0.0" x2="-50.0" y1="300.0" y2="246.7554" /><line id="ray-b1.000" stroke="red" stroke-opacity="1.0" stroke-width="1" x1="0.0" x2="-50.0" y1="300.0" y2="251.0364" /><line id="ray-b1.000" stroke="red" stroke-opacity="1.0" stroke-width="1" x1="0.0" x2="-50.0" y1="300.0" y2="254.9798" /><line id="ray-b1.000" stroke="red" stroke-opacity="1.0" stroke-width="1" x1="0.0" x2="-50.0" y1="300.0" y2="258.6364" /><line id="ray-b1.000" stroke="red" stroke-opacity="1.0" stroke-width="1" x1="0.0" x2="-50.0" y1="300.0" y2="262.0479" /><line id="ray-b1.000" stroke="red" stroke-opacity="1.0" stroke-width="1" x1="0.0" x2="-50.0" y1="300.0" y2="265.2491" /><line id="ray-b1.000" stroke="red" stroke-opacity="1.0" stroke-width="1" x1="0.0" x2="-50.0" y1="300.0" y2="268.269" /><line id="ray-b1.000" stroke="red" stroke-opacity="1.0" stroke-width="1" x1="0.0" x2="-50.0" y1="300.0" y2="271.1325" /><line id="ray-b1.000" stroke="red" stroke-opacity="1.0" stroke-width="1" x1="0.0" x2="-50.0" y1="300.0" y2="273.8606" /><line id="ray-b1.000" stroke="red" stroke-opacity="1.0" stroke-width="1" x1="0.0" x2="-50.0" y1="300.0" y2="276.4718" /><line id="ray-b1.000" stroke="red" stroke-opacity="1.0" stroke-width="1" x1="0.0" x2="-50.0" y1="300.0" y2="278.9819" /><line id="ray-b1.000" stroke="red" stroke-opacity="1.0" stroke-width="1" x1="0.0" x2="-50.0" y1="300.0" y2="281.4052" /><line id="ray-b1.000" stroke="red" stroke-opacity="1.0" stroke-width="1" x1="0.0" x2="-50.0" y1="300.0" y2="283.754" /><line id="ray-b1.000" stroke="red" stroke-opacity="1.0" stroke-width="1" x1="0.0" x2="-50.0" y1="300.0" y2="286.0397" /><line id="ray-b1.000" stroke="red" stroke-opacity="1.0" stroke-width="1" x1="0.0" x2="-50.0" y1="300.0" y2="288.2726" /><line id="ray-b1.000" stroke="red" stroke-opacity="1.0" stroke-width="1" x1="0.0" x2="-50.0" y1="300.0" y2="290.462" /><line id="ray-b1.000" stroke="red" stroke-opacity="1.0" stroke-width="1" x1="0.0" x2="-50.0" y1="300.0" y2="292.6166" /><line id="ray-b1.000" stroke="red" stroke-opacity="1.0" stroke-width="1" x1="0.0" x2="-50.0" y1="300.0" y2="294.7448" /><line id="ray-b1.000" stroke="red" stroke-opacity="1.0" stroke-width="1" x1="0.0" x2="-50.0" y1="300.0" y2="296.8543" /><line id="ray-b1.000" stroke="red" stroke-opacity="1.0" stroke-width="1" x1="0.0" x2="-50.0" y1="300.0" y2="298.9526" /><line id="ray-b1.000" stroke="red" stroke-opacity="1.0" stroke-width="1" x1="0.0" x2="-50.0" y1="300.0" y2="301.0474" /><line id="ray-b1.000" stroke="red" stroke-opacity="1.0" stroke-width="1" x1="0.0" x2="-50.0" y1="300.0" y2="303.1457" /><line id="ray-b1.000" stroke="red" stroke-opacity="1.0" stroke-width="1" x1="0.0" x2="-50.0" y1="300.0" y2="305.2552" /><line id="ray-b1.000" stroke="red" stroke-opacity="1.0" stroke-width="1" x1="0.0" x2="-50.0" y1="300.0" y2="307.3834" /><line id="ray-b1.000" stroke="red" stroke-opacity="1.0" stroke-width="1" x1="0.0" x2="-50.0" y1="300.0" y2="309.538" /><line id="ray-b1.000" stroke="red" stroke-opacity="1.0" stroke-width="1" x1="0.0" x2="-50.0" y1="300.0" y2="311.7274" /><line id="ray-b1.000" stroke="red" stroke-opacity="1.0" stroke-width="1" x1="0.0" x2="-50.0" y1="300.0" y2="313.9603" /><line id="ray-b1.000" stroke="red" stroke-opacity="1.0" stroke-width="1" x1="0.0" x2="-50.0" y1="300.0" y2="316.246" /><line id="ray-b1.000" stroke="red" stroke-opacity="1.0" stroke-width="1" x1="0.0" x2="-50.0" y1="300.0" y2="318.5948" /><line id="ray-b1.000" stroke="red" stroke-opacity="1.0" stroke-width="1" x1="0.0" x2="-50.0" y1="300.0" y2="321.0181" /><line id="ray-b1.000" stroke="red" stroke-opacity="1.0" stroke-width="1" x1="0.0" x2="-50.0" y1="300.0" y2="323.5282" /><line id="ray-b1.000" stroke="red" stroke-opacity="1.0" stroke-width="1" x1="0.0" x2="-50.0" y1="300.0" y2="326.1394" /><line id="ray-b1.000" stroke="red" stroke-opacity="1.0" stroke-width="1" x1="0.0" x2="-50.0" y1="300.0" y2="328.8675" /><line id="ray-b1.000" stroke="red" stroke-opacity="1.0" stroke-width="1" x1="0.0" x2="-50.0" y1="300.0" y2="331.731" /><line id="ray-b1.000" stroke="red" stroke-opacity="1.0" stroke-width="1" x1="0.0" x2="-50.0" y1="300.0" y2="334.7509" /><line id="ray-b1.000" stroke="red" stroke-opacity="1.0" stroke-width="1" x1="0.0" x2="-50.0" y1="300.0" y2="337.9521" /><line id="ray-b1.000" stroke="red" stroke-opacity="1.0" stroke-width="1" x1="0.0" x2="-50.0" y1="300.0" y2="341.3636" /><line id="ray-b1.000" stroke="red" stroke-opacity="1.0" stroke-width="1" x1="0.0" x2="-50.0" y1="300.0" y2="345.0202" /><line id="ray-b1.000" stroke="red" stroke-opacity="1.0" stroke-width="1" x1="0.0" x2="-50.0" y1="300.0" y2="348.9636" /><line id="ray-b1.000" stroke="red" stroke-opacity="1.0" stroke-width="1" x1="0.0" x2="-50.0" y1="300.0" y2="353.2446" /><line id="ray-b1.000" stroke="red" stroke-opacity="1.0" stroke-width="1" x1="0.0" x2="-50.0" y1="300.0" y2="357.9256" /><line id="ray-b1.000" stroke="red" stroke-opacity="1.0" stroke-width="1" x1="0.0" x2="-50.0" y1="300.0" y2="363.0843" /><line id="ray-b1.000" stroke="red" stroke-opacity="1.0" stroke-width="1" x1="0.0" x2="-50.0" y1="300.0" y2="368.8191" /><line id="ray-b1.000" stroke="red" stroke-opacity="1.0" stroke-width="1" x1="0.0" x2="-50.0" y1="300.0" y2="375.256" /><line id="ray-b1.000" stroke="red" stroke-opacity="1.0" stroke-width="1" x1="0.0" x2="-50.0" y1="300.0" y2="382.5598" /><line id="ray-b1.000" stroke="red" stroke-opacity="1.0" stroke-width="1" x1="0.0" x2="-50.0" y1="300.0" y2="390.9497" /><line id="ray-b1.000" stroke="red" stroke-opacity="1.0" stroke-width="1" x1="0.0" x2="-50.0" y1="300.0" y2="400.7243" /><line id="ray-b1.000" stroke="red" stroke-opacity="1.0" stroke-width="1" x1="0.0" x2="-50.0" y1="300.0" y2="412.3018" /><line id="ray-b1.000" stroke="red" stroke-opacity="1.0" stroke-width="1" x1="0.0" x2="-50.0" y1="300.0" y2="426.2856" /><line id="ray-b1.000" stroke="red" stroke-opacity="1.0" stroke-width="1" x1="0.0" x2="-50.0" y1="300.0" y2="443.5804" /><line id="ray-b1.000" stroke="red" stroke-opacity="1.0" stroke-width="1" x1="0.0" x2="-50.0" y1="300.0" y2="465.608" /><line id="ray-b1.000" stroke="red" stroke-opacity="1.0" stroke-width="1" x1="0.0" x2="-50.0" y1="300.0" y2="494.7371" /><line id="ray-b1.000" stroke="red" stroke-opacity="1.0" stroke-width="1" x1="0.0" x2="-42.5113" y1="300.0" y2="500.0" /><line id="ray-b1.000" stroke="red" stroke-opacity="1.0" stroke-width="1" x1="0.0" x2="-33.8275" y1="300.0" y2="500.0" /><line id="ray-b1.000" stroke="red" stroke-opacity="1.0" stroke-width="1" x1="0.0" x2="-25.2659" y1="300.0" y2="500.0" /><line id="ray-b1.000" stroke="red" stroke-opacity="1.0" stroke-width="1" x1="0.0" x2="-16.7945" y1="300.0" y2="500.0" /><line id="ray-b1.000" stroke="red" stroke-opacity="1.0" stroke-width="1" x1="0.0" x2="-8.3825" y1="300.0" y2="500.0" /><line id="ray-b0.073" stroke="red" stroke-opacity="0.073" stroke-width="1" x1="202.3457" x2="205.9196" y1="375.2517" y2="500.0" /><line id="ray-b0.927" stroke="red" stroke-opacity="0.927" stroke-width="1" x1="202.3457" x2="232.3442" y1="375.2517" y2="374.173" /><line id="ray-b0.057" stroke="red" stroke-opacity="0.0567" stroke-width="1" x1="194.3156" x2="172.4219" y1="363.137" y2="500.0" /><line id="ray-b0.943" stroke="red" stroke-opacity="0.9433" stroke-width="1" x1="194.3156" x2="233.9488" y1="363.137" y2="362.4327" /><line id="ray-b0.049" stroke="red" stroke-opacity="0.0487" stroke-width="1" x1="188.2853" x2="139.0692" y1="352.5702" y2="500.0" /><line id="ray-b0.951" stroke="red" stroke-opacity="0.9513" stroke-width="1" x1="188.2853" x2="234.7818" y1="352.5702" y2="352.0707" /><line id="ray-b0.045" stroke="red" stroke-opacity="0.0446" stroke-width="1" x1="183.5504" x2="103.745" y1="343.0514" y2="500.0" /><line id="ray-b0.955" stroke="red" stroke-opacity="0.9554" stroke-width="1" x1="183.5504" x2="235.0718" y1="343.0514" y2="342.4938" /><line id="ray-b0.042" stroke="red" stroke-opacity="0.0423" stroke-width="1" x1="179.7289" x2="64.416" y1="334.2851" y2="500.0" /><line id="ray-b0.958" stroke="red" stroke-opacity="0.9577" stroke-width="1" x1="179.7289" x2="234.923" y1="334.2851" y2="333.4149" /><line id="ray-b0.041" stroke="red" stroke-opacity="0.0411" stroke-width="1" x1="176.5903" x2="18.5107" y1="326.0766" y2="500.0" /><line id="ray-b0.959" stroke="red" stroke-opacity="0.9589" stroke-width="1" x1="176.5903" x2="234.3896" y1="326.0766" y2="324.678" /><line id="ray-b0.041" stroke="red" stroke-opacity="0.0405" stroke-width="1" x1="173.9854" x2="-37.8316" y1="318.2866" y2="500.0" /><line id="ray-b0.959" stroke="red" stroke-opacity="0.9595" stroke-width="1" x1="173.9854" x2="233.5023" y1="318.2866" y2="316.1925" /><line id="ray-b0.040" stroke="red" stroke-opacity="0.0402" stroke-width="1" x1="171.8134" x2="-50.0" y1="310.8096" y2="459.1004" /><line id="ray-b0.960" stroke="red" stroke-opacity="0.9598" stroke-width="1" x1="171.8134" x2="232.2794" y1="310.8096" y2="307.9031" /><line id="ray-b0.040" stroke="red" stroke-opacity="0.0401" stroke-width="1" x1="170.0046" x2="-50.0" y1="303.5611" y2="416.0634" /><line id="ray-b0.960" stroke="red" stroke-opacity="0.9599" stroke-width="1" x1="170.0046" x2="230.7321" y1="303.5611" y2="299.7749" /><line id="ray-b0.040" stroke="red" stroke-opacity="0.04" stroke-width="1" x1="168.5098" x2="-50.0" y1="296.4702" y2="378.3036" /><line id="ray-b0.960" stroke="red" stroke-opacity="0.96" stroke-width="1" x1="168.5098" x2="228.8671" y1="296.4702" y2="291.7847" /><line id="ray-b0.040" stroke="red" stroke-opacity="0.04" stroke-width="1" x1="167.2954" x2="-50.0" y1="289.4747" y2="343.9061" /><line id="ray-b0.960" stroke="red" stroke-opacity="0.96" stroke-width="1" x1="167.2954" x2="226.6874" y1="289.4747" y2="283.9164" /><line id="ray-b0.040" stroke="red" stroke-opacity="0.04" stroke-width="1" x1="166.3392" x2="-50.0" y1="282.517" y2="311.5321" /><line id="ray-b0.960" stroke="red" stroke-opacity="0.96" stroke-width="1" x1="166.3392" x2="224.1932" y1="282.517" y2="276.1573" /><line id="ray-b0.040" stroke="red" stroke-opacity="0.04" stroke-width="1" x1="165.6288" x2="-50.0" y1="275.5421" y2="280.1401" /><line id="ray-b0.960" stroke="red" stroke-opacity="0.96" stroke-width="1" x1="165.6288" x2="221.381" y1="275.5421" y2="268.4962" /><line id="ray-b0.040" stroke="red" stroke-opacity="0.04" stroke-width="1" x1="165.1608" x2="-50.0" y1="268.4939" y2="248.815" /><line id="ray-b0.960" stroke="red" stroke-opacity="0.96" stroke-width="1" x1="165.1608" x2="218.2431" y1="268.4939" y2="260.9209" /><line id="ray-b0.040" stroke="red" stroke-opacity="0.04" stroke-width="1" x1="164.9404" x2="-50.0" y1="261.3136" y2="216.6372" /><line id="ray-b0.960" stroke="red" stroke-opacity="0.96" stroke-width="1" x1="164.9404" x2="214.766" y1="261.3136" y2="253.4164" /><line id="ray-b0.040" stroke="red" stroke-opacity="0.0401" stroke-width="1" x1="164.9826" x2="-50.0" y1="253.936" y2="182.5486" /><line id="ray-b0.960" stroke="red" stroke-opacity="0.9599" stroke-width="1" x1="164.9826" x2="210.9278" y1="253.936" y2="245.9627" /><line id="ray-b0.040" stroke="red" stroke-opacity="0.0404" stroke-width="1" x1="165.3142" x2="-50.0" y1="246.2862" y2="145.1655" /><line id="ray-b0.960" stroke="red" stroke-opacity="0.9596" stroke-width="1" x1="165.3142" x2="206.694" y1="246.2862" y2="238.5315" /><line id="ray-b0.041" stroke="red" stroke-opacity="0.0409" stroke-width="1" x1="165.9771" x2="-50.0" y1="238.2737" y2="102.4572" /><line id="ray-b0.959" stroke="red" stroke-opacity="0.9591" stroke-width="1" x1="165.9771" x2="202.0104" y1="238.2737" y2="231.0819" /><line id="ray-b0.042" stroke="red" stroke-opacity="0.0418" stroke-width="1" x1="167.0356" x2="9.4005" y1="229.7847" y2="100.0" /><line id="ray-b0.958" stroke="red" stroke-opacity="0.9582" stroke-width="1" x1="167.0356" x2="196.7908" y1="229.7847" y2="223.5525" /><line id="ray-b0.037" stroke="red" stroke-opacity="0.0368" stroke-width="1" x1="232.3442" x2="191.566" y1="374.173" y2="358.5032" /><line id="ray-b0.890" stroke="red" stroke-opacity="0.8902" stroke-width="1" x1="232.3442" x2="300.0" y1="374.173" y2="364.6867" /><line id="ray-b0.038" stroke="red" stroke-opacity="0.0377" stroke-width="1" x1="233.9488" x2="187.7807" y1="362.4327" y2="351.6139" /><line id="ray-b0.906" stroke="red" stroke-opacity="0.9057" stroke-width="1" x1="233.9488" x2="300.0" y1="362.4327" y2="357.1135" /><line id="ray-b0.038" stroke="red" stroke-opacity="0.038" stroke-width="1" x1="234.7818" x2="185.0029" y1="352.0707" y2="346.1092" /><line id="ray-b0.913" stroke="red" stroke-opacity="0.9133" stroke-width="1" x1="234.7818" x2="300.0" y1="352.0707" y2="349.2442" /><line id="ray-b0.038" stroke="red" stroke-opacity="0.0382" stroke-width="1" x1="235.0718" x2="182.7315" y1="342.4938" y2="341.2663" /><line id="ray-b0.917" stroke="red" stroke-opacity="0.9172" stroke-width="1" x1="235.0718" x2="300.0" y1="342.4938" y2="341.2348" /><line id="ray-b0.038" stroke="red" stroke-opacity="0.0383" stroke-width="1" x1="234.923" x2="180.774" y1="333.4149" y2="336.799" /><line id="ray-b0.919" stroke="red" stroke-opacity="0.9194" stroke-width="1" x1="234.923" x2="300.0" y1="333.4149" y2="333.1481" /><line id="ray-b0.038" stroke="red" stroke-opacity="0.0383" stroke-width="1" x1="234.3896" x2="179.0366" y1="324.678" y2="332.5646" /><line id="ray-b0.921" stroke="red" stroke-opacity="0.9205" stroke-width="1" x1="234.3896" x2="300.0" y1="324.678" y2="325.0194" /><line id="ray-b0.038" stroke="red" stroke-opacity="0.0384" stroke-width="1" x1="233.5023" x2="177.4668" y1="316.1925" y2="328.4805" /><line id="ray-b0.921" stroke="red" stroke-opacity="0.9211" stroke-width="1" x1="233.5023" x2="300.0" y1="316.1925" y2="316.8733" /><line id="ray-b0.038" stroke="red" stroke-opacity="0.0384" stroke-width="1" x1="232.2794" x2="176.0318" y1="307.9031" y2="324.493" /><line id="ray-b0.921" stroke="red" stroke-opacity="0.9214" stroke-width="1" x1="232.2794" x2="300.0" y1="307.9031" y2="308.7296" /><line id="ray-b0.038" stroke="red" stroke-opacity="0.0384" stroke-width="1" x1="230.7321" x2="174.7099" y1="299.7749" y2="320.5632" /><line id="ray-b0.922" stroke="red" stroke-opacity="0.9215" stroke-width="1" x1="230.7321" x2="300.0" y1="299.7749" y2="300.6063" /><line id="ray-b0.038" stroke="red" stroke-opacity="0.0385" stroke-width="1" x1="228.8671" x2="173.4861" y1="291.7847" y2="316.6606" /><line id="ray-b0.922" stroke="red" stroke-opacity="0.9215" stroke-width="1" x1="228.8671" x2="300.0" y1="291.7847" y2="292.5208" /><line id="ray-b0.039" stroke="red" stroke-opacity="0.0385" stroke-width="1" x1="226.6874" x2="172.3494" y1="283.9164" y2="312.759" /><line id="ray-b0.921" stroke="red" stroke-opacity="0.9215" stroke-width="1" x1="226.6874" x2="300.0" y1="283.9164" y2="284.4918" /><line id="ray-b0.039" stroke="red" stroke-opacity="0.0386" stroke-width="1" x1="224.1932" x2="171.2917" y1="276.1573" y2="308.8334" /><line id="ray-b0.921" stroke="red" stroke-opacity="0.9214" stroke-width="1" x1="224.1932" x2="300.0" y1="276.1573" y2="276.5407" /><line id="ray-b0.039" stroke="red" stroke-opacity="0.0387" stroke-width="1" x1="221.381" x2="170.3073" y1="268.4962" y2="304.8586" /><line id="ray-b0.921" stroke="red" stroke-opacity="0.9213" stroke-width="1" x1="221.381" x2="300.0" y1="268.4962" y2="268.6938" /><line id="ray-b0.039" stroke="red" stroke-opacity="0.0389" stroke-width="1" x1="218.2431" x2="169.3921" y1="260.9209" y2="300.8068" /><line id="ray-b0.921" stroke="red" stroke-opacity="0.9211" stroke-width="1" x1="218.2431" x2="300.0" y1="260.9209" y2="260.9847" /><line id="ray-b0.039" stroke="red" stroke-opacity="0.0392" stroke-width="1" x1="214.766" x2="168.5435" y1="253.4164" y2="296.6453" /><line id="ray-b0.921" stroke="red" stroke-opacity="0.9208" stroke-width="1" x1="214.766" x2="300.0" y1="253.4164" y2="253.4589" /><line id="ray-b0.040" stroke="red" stroke-opacity="0.0395" stroke-width="1" x1="210.9278" x2="167.7606" y1="245.9627" y2="292.3323" /><line id="ray-b0.920" stroke="red" stroke-opacity="0.9204" stroke-width="1" x1="210.9278" x2="300.0" y1="245.9627" y2="246.1794" /><line id="ray-b0.040" stroke="red" stroke-opacity="0.04" stroke-width="1" x1="206.694" x2="167.044" y1="238.5315" y2="287.8108" /><line id="ray-b0.920" stroke="red" stroke-opacity="0.9196" stroke-width="1" x1="206.694" x2="300.0" y1="238.5315" y2="239.2383" /><line id="ray-b0.041" stroke="red" stroke-opacity="0.0408" stroke-width="1" x1="202.0104" x2="166.3969" y1="231.0819" y2="282.9952" /><line id="ray-b0.918" stroke="red" stroke-opacity="0.9183" stroke-width="1" x1="202.0104" x2="300.0" y1="231.0819" y2="232.7756" /><line id="ray-b0.042" stroke="red" stroke-opacity="0.0421" stroke-width="1" x1="196.7908" x2="165.8263" y1="223.5525" y2="277.7433" /><line id="ray-b0.916" stroke="red" stroke-opacity="0.9161" stroke-width="1" x1="196.7908" x2="300.0" y1="223.5525" y2="227.0191" /><line id="ray-b0.037" stroke="red" stroke-opacity="0.0368" stroke-width="1" x1="191.566" x2="209.9821" y1="358.5032" y2="244.2373" /><line id="ray-b0.013" stroke="red" stroke-opacity="0.0131" stroke-width="1" x1="187.7807" x2="220.9441" y1="351.6139" y2="267.3868" /><line id="ray-b0.025" stroke="red" stroke-opacity="0.0245" stroke-width="1" x1="187.7807" x2="-14.6628" y1="351.6139" y2="100.0" /><line id="ray-b0.036" stroke="red" stroke-opacity="0.0355" stroke-width="1" x1="185.0029" x2="-50.0" y1="346.1092" y2="219.6437" /><line id="ray-b0.036" stroke="red" stroke-opacity="0.0365" stroke-width="1" x1="182.7315" x2="-50.0" y1="341.2663" y2="273.5389" /><line id="ray-b0.011" stroke="red" stroke-opacity="0.011" stroke-width="1" x1="180.774" x2="229.108" y1="336.799" y2="292.7389" /><line id="ray-b0.037" stroke="red" stroke-opacity="0.0367" stroke-width="1" x1="180.774" x2="-50.0" y1="336.799" y2="308.8731" /><line id="ray-b0.037" stroke="red" stroke-opacity="0.0368" stroke-width="1" x1="179.0366" x2="-50.0" y1="332.5646" y2="336.9102" /><line id="ray-b0.037" stroke="red" stroke-opacity="0.0368" stroke-width="1" x1="177.4668" x2="-50.0" y1="328.4805" y2="361.6772" /><line id="ray-b0.037" stroke="red" stroke-opacity="0.0369" stroke-width="1" x1="176.0318" x2="-50.0" y1="324.493" y2="385.2908" /><line id="ray-b0.037" stroke="red" stroke-opacity="0.0369" stroke-width="1" x1="174.7099" x2="-50.0" y1="320.5632" y2="409.2617" /><line id="ray-b0.037" stroke="red" stroke-opacity="0.0369" stroke-width="1" x1="173.4861" x2="-50.0" y1="316.6606" y2="435.034" /><line id="ray-b0.037" stroke="red" stroke-opacity="0.037" stroke-width="1" x1="172.3494" x2="-50.0" y1="312.759" y2="464.3995" /><line id="ray-b0.012" stroke="red" stroke-opacity="0.0116" stroke-width="1" x1="171.2917" x2="232.8908" y1="308.8334" y2="311.7486" /><line id="ray-b0.037" stroke="red" stroke-opacity="0.037" stroke-width="1" x1="171.2917" x2="-49.8827" y1="308.8334" y2="500.0" /><line id="ray-b0.037" stroke="red" stroke-opacity="0.0369" stroke-width="1" x1="170.3073" x2="-7.1135" y1="304.8586" y2="500.0" /><line id="ray-b0.037" stroke="red" stroke-opacity="0.0367" stroke-width="1" x1="169.3921" x2="31.1162" y1="300.8068" y2="500.0" /><line id="ray-b0.013" stroke="red" stroke-opacity="0.0129" stroke-width="1" x1="168.5435" x2="234.1648" y1="296.6453" y2="322.1638" /><line id="ray-b0.036" stroke="red" stroke-opacity="0.0359" stroke-width="1" x1="168.5435" x2="68.9687" y1="296.6453" y2="500.0" /><line id="ray-b0.013" stroke="red" stroke-opacity="0.013" stroke-width="1" x1="167.7606" x2="234.6014" y1="292.3323" y2="327.4641" /><line id="ray-b0.033" stroke="red" stroke-opacity="0.033" stroke-width="1" x1="167.7606" x2="113.1932" y1="292.3323" y2="500.0" /><line id="ray-b0.040" stroke="red" stroke-opacity="0.04" stroke-width="1" x1="167.044" x2="234.961" y1="287.8108" y2="334.4559" /><line id="ray-b0.041" stroke="red" stroke-opacity="0.0408" stroke-width="1" x1="166.3969" x2="235.0562" y1="282.9952" y2="344.0276" /><line id="ray-b0.042" stroke="red" stroke-opacity="0.0421" stroke-width="1" x1="165.8263" x2="234.3998" y1="277.7433" y2="357.6607" /><line id="ray-b0.037" stroke="red" stroke-opacity="0.0368" stroke-width="1" x1="209.9821" x2="167.5633" y1="244.2373" y2="226.3856" /><line id="ray-b0.013" stroke="red" stroke-opacity="0.0131" stroke-width="1" x1="220.9441" x2="165.6788" y1="267.3868" y2="241.4123" /><line id="ray-b0.010" stroke="red" stroke-opacity="0.0103" stroke-width="1" x1="229.108" x2="300.0" y1="292.7389" y2="172.8862" /><line id="ray-b0.011" stroke="red" stroke-opacity="0.0111" stroke-width="1" x1="232.8908" x2="300.0" y1="311.7486" y2="321.7076" /><line id="ray-b0.012" stroke="red" stroke-opacity="0.0119" stroke-width="1" x1="234.1648" x2="300.0" y1="322.1638" y2="371.6688" /><line id="ray-b0.011" stroke="red" stroke-opacity="0.0107" stroke-width="1" x1="234.6014" x2="191.4824" y1="327.4641" y2="358.3578" /><line id="ray-b0.011" stroke="red" stroke-opacity="0.0114" stroke-width="1" x1="234.6014" x2="300.0" y1="327.4641" y2="400.139" /><line id="ray-b0.034" stroke="red" stroke-opacity="0.0341" stroke-width="1" x1="234.961" x2="300.0" y1="334.4559" y2="451.8265" /><line id="ray-b0.017" stroke="red" stroke-opacity="0.0173" stroke-width="1" x1="235.0562" x2="200.6864" y1="344.0276" y2="372.9001" /><line id="ray-b0.023" stroke="red" stroke-opacity="0.0235" stroke-width="1" x1="235.0562" x2="263.8165" y1="344.0276" y2="500.0" /><line id="ray-b0.042" stroke="red" stroke-opacity="0.0421" stroke-width="1" x1="234.3998" x2="206.5861" y1="357.6607" y2="380.9533" /><line id="ray-b0.035" stroke="red" stroke-opacity="0.0353" stroke-width="1" x1="167.5633" x2="-50.0" y1="226.3856" y2="101.6637" /><line id="ray-b0.012" stroke="red" stroke-opacity="0.0125" stroke-width="1" x1="165.6788" x2="-27.7865" y1="241.4123" y2="100.0" /><line id="ray-b0.010" stroke="red" stroke-opacity="0.0103" stroke-width="1" x1="191.4824" x2="13.5244" y1="358.3578" y2="500.0" /><line id="ray-b0.017" stroke="red" stroke-opacity="0.0166" stroke-width="1" x1="200.6864" x2="62.7753" y1="372.9001" y2="500.0" /><line id="ray-b0.040" stroke="red" stroke-opacity="0.0404" stroke-width="1" x1="206.5861" x2="70.0714" y1="380.9533" y2="500.0" /></g><g id="labels" transform="scale(1, -1)"><text fill="orange" font-family="sans-serif" font-size="12px" transform="scale(1, -1)" x="7.0" y="307">Source</text><text fill="navy" font-family="sans-serif" font-size="12px" text-anchor="middle" transform="scale(1, -1)" x="200.0" y="300.0">Lens (ffd=189)</text><text fill="black" font-family="sans-serif" font-size="12px" text-anchor="middle" transform="scale(1, -1)" x="300.0" y="305.0">Screen</text></g></svg>