<?xml version="1.0" encoding="utf-8" ?>
<svg baseProfile="tiny" height="600px" version="1.2" viewBox="0,-200,300,200" width="800px" xmlns="http://www.w3.org/2000/svg" xmlns:ev="http://www.w3.org/2001/xml-events" xmlns:xlink="http://www.w3.org/1999/xlink"><defs /><rect fill="white" height="200" width="300" x="0" y="-200" /><g id="objects" transform="scale(1, -1)"><line stroke="blue" stroke-width="2" x1="167" x2="274" y1="61" y2="61" /><line stroke="blue" stroke-width="2" x1="274" x2="188" y1="61" y2="104" /><line stroke="blue" stroke-width="2" x1="188" x2="167" y1="104" y2="61" /><line stroke="blue" stroke-width="2" x1="167" x2="274" y1="61" y2="61" /><line stroke="blue" stroke-width="2" x1="274" x2="253" y1="61" y2="13" /><line stroke="blue" stroke-width="2" x1="253" x2="167" y1="13" y2="61" /></g><g id="rays" transform="scale(1, -1)"><line id="ray-b1.000" stroke="red" stroke-opacity="0.8" stroke-width="1.5" x1="272.0" x2="254.9302" y1="4.0" y2="17.412" /><line id="ray-b0.040" stroke="red" stroke-opacity="0.8" stroke-width="1.5" x1="254.9302" x2="300.0" y1="17.412" y2="10.1917" /><line id="ray-b0.960" stroke="red" stroke-opacity="0.8" stroke-width="1.5" x1="254.9302" x2="188.4636" y1="17.412" y2="61.0" /><line id="ray-b0.960" stroke="red" stroke-opacity="0.8" stroke-width="1.5" x1="188.4636" x2="172.2066" y1="61.0" y2="71.6612" /><line id="ray-b0.038" stroke="red" stroke-opacity="0.8" stroke-width="1.5" x1="172.2066" x2="203.5185" y1="71.6612" y2="61.0" /><line id="ray-b0.922" stroke="red" stroke-opacity="0.8" stroke-width="1.5" x1="172.2066" x2="1.3144" y1="71.6612" y2="200.0" /><line id="ray-b0.038" stroke="red" stroke-opacity="0.8" stroke-width="1.5" x1="203.5185" x2="264.8622" y1="61.0" y2="40.1136" /><line id="ray-b0.037" stroke="red" stroke-opacity="0.8" stroke-width="1.5" x1="264.8622" x2="300.0" y1="40.1136" y2="29.7862" /></g><g id="labels" transform="scale(1, -1)"><text fill="blue" font-family="sans-serif" font-size="12px" text-anchor="middle" transform="scale(1, -1)" x="220.5" y="66.0">MeasPrism</text><text fill="blue" font-family="sans-serif" font-size="12px" text-anchor="middle" transform="scale(1, -1)" x="220.5" y="66.0">IllPrism</text></g></svg>