<?xml version="1.0" encoding="utf-8" ?>
<svg baseProfile="tiny" height="600px" version="1.2" viewBox="-50,-500,400,400" width="800px" xmlns="http://www.w3.org/2000/svg" xmlns:ev="http://www.w3.org/2001/xml-events" xmlns:xlink="http://www.w3.org/1999/xlink"><defs /><rect fill="white" height="400" width="400" x="-50" y="-500" /><g id="objects" transform="scale(1, -1)"><circle cx="0.0" cy="300" fill="orange" r="5" /><line stroke="blue" stroke-width="3" x1="100" x2="100" y1="200" y2="400" /><polygon fill="blue" points="100.0,190.0 110.0,210.0 90.0,210.0" /><polygon fill="blue" points="100.0,410.0 110.0,390.0 90.0,390.0" /><line stroke="blue" stroke-width="2" x1="92.0" x2="108.0" y1="300.0" y2="300.0" /><line stroke="black" stroke-width="3" x1="300" x2="300" y1="100" y2="500" /></g><g id="rays" transform="scale(1, -1)"><line id="ray-b1.000" stroke="red" stroke-opacity="1.0" stroke-width="1" x1="0.0" x2="8.3825" y1="300.0" y2="500.0" /><line id="ray-b1.000" stroke="red" stroke-opacity="1.0" stroke-width="1" x1="0.0" x2="16.7945" y1="300.0" y2="500.0" /><line id="ray-b1.000" stroke="red" stroke-opacity="1.0" stroke-width="1" x1="0.0" x2="25.2659" y1="300.0" y2="500.0" /><line id="ray-b1.000" stroke="red" stroke-opacity="1.0" stroke-width="1" x1="0.0" x2="33.8275" y1="300.0" y2="500.0" /><line id="ray-b1.000" stroke="red" stroke-opacity="1.0" stroke-width="1" x1="0.0" x2="42.5113" y1="300.0" y2="500.0" /><line id="ray-b1.000" stroke="red" stroke-opacity="1.0" stroke-width="1" x1="0.0" x2="51.3513" y1="300.0" y2="500.0" /><line id="ray-b1.000" stroke="red" stroke-opacity="1.0" stroke-width="1" x1="0.0" x2="60.3836" y1="300.0" y2="500.0" /><line id="ray-b1.000" stroke="red" stroke-opacity="1.0" stroke-width="1" x1="0.0" x2="69.6474" y1="300.0" y2="500.0" /><line id="ray-b1.000" stroke="red" stroke-opacity="1.0" stroke-width="1" x1="0.0" x2="79.1856" y1="300.0" y2="500.0" /><line id="ray-b1.000" stroke="red" stroke-opacity="1.0" stroke-width="1" x1="0.0" x2="89.0457" y1="300.0" y2="500.0" /><line id="ray-b1.000" stroke="red" stroke-opacity="1.0" stroke-width="1" x1="0.0" x2="99.2809" y1="300.0" y2="500.0" /><line id="ray-b1.000" stroke="red" stroke-opacity="1.0" stroke-width="1" x1="0.0" x2="109.9509" y1="300.0" y2="500.0" /><line id="ray-b1.000" stroke="red" stroke-opacity="1.0" stroke-width="1" x1="0.0" x2="121.1243" y1="300.0" y2="500.0" /><line id="ray-b1.000" stroke="red" stroke-opacity="1.0" stroke-width="1" x1="0.0" x2="132.8797" y1="300.0" y2="500.0" /><line id="ray-b1.000" stroke="red" stroke-opacity="1.0" stroke-width="1" x1="0.0" x2="145.3085" y1="300.0" y2="500.0" /><line id="ray-b1.000" stroke="red" stroke-opacity="1.0" stroke-width="1" x1="0.0" x2="158.518" y1="300.0" y2="500.0" /><line id="ray-b1.000" stroke="red" stroke-opacity="1.0" stroke-width="1" x1="0.0" x2="172.6354" y1="300.0" y2="500.0" /><line id="ray-b1.000" stroke="red" stroke-opacity="1.0" stroke-width="1" x1="0.0" x2="187.8125" y1="300.0" y2="500.0" /><line id="ray-b1.000" stroke="red" stroke-opacity="1.0" stroke-width="1" x1="0.0" x2="100.0" y1="300.0" y2="397.9272" /><line id="ray-b1.000" stroke="red" stroke-opacity="1.0" stroke-width="1" x1="0.0" x2="100.0" y1="300.0" y2="390.0404" /><line id="ray-b1.000" stroke="red" stroke-opacity="1.0" stroke-width="1" x1="0.0" x2="100.0" y1="300.0" y2="382.7272" /><line id="ray-b1.000" stroke="red" stroke-opacity="1.0" stroke-width="1" x1="0.0" x2="100.0" y1="300.0" y2="375.9041" /><line id="ray-b1.000" stroke="red" stroke-opacity="1.0" stroke-width="1" x1="0.0" x2="100.0" y1="300.0" y2="369.5018" /><line id="ray-b1.000" stroke="red" stroke-opacity="1.0" stroke-width="1" x1="0.0" x2="100.0" y1="300.0" y2="363.4619" /><line id="ray-b1.000" stroke="red" stroke-opacity="1.0" stroke-width="1" x1="0.0" x2="100.0" y1="300.0" y2="357.735" /><line id="ray-b1.000" stroke="red" stroke-opacity="1.0" stroke-width="1" x1="0.0" x2="100.0" y1="300.0" y2="352.2787" /><line id="ray-b1.000" stroke="red" stroke-opacity="1.0" stroke-width="1" x1="0.0" x2="100.0" y1="300.0" y2="347.0564" /><line id="ray-b1.000" stroke="red" stroke-opacity="1.0" stroke-width="1" x1="0.0" x2="100.0" y1="300.0" y2="342.0361" /><line id="ray-b1.000" stroke="red" stroke-opacity="1.0" stroke-width="1" x1="0.0" x2="100.0" y1="300.0" y2="337.1897" /><line id="ray-b1.000" stroke="red" stroke-opacity="1.0" stroke-width="1" x1="0.0" x2="100.0" y1="300.0" y2="332.492" /><line id="ray-b1.000" stroke="red" stroke-opacity="1.0" stroke-width="1" x1="0.0" x2="100.0" y1="300.0" y2="327.9205" /><line id="ray-b1.000" stroke="red" stroke-opacity="1.0" stroke-width="1" x1="0.0" x2="100.0" y1="300.0" y2="323.4548" /><line id="ray-b1.000" stroke="red" stroke-opacity="1.0" stroke-width="1" x1="0.0" x2="100.0" y1="300.0" y2="319.076" /><line id="ray-b1.000" stroke="red" stroke-opacity="1.0" stroke-width="1" x1="0.0" x2="100.0" y1="300.0" y2="314.7667" /><line id="ray-b1.000" stroke="red" stroke-opacity="1.0" stroke-width="1" x1="0.0" x2="100.0" y1="300.0" y2="310.5104" /><line id="ray-b1.000" stroke="red" stroke-opacity="1.0" stroke-width="1" x1="0.0" x2="100.0" y1="300.0" y2="306.2915" /><line id="ray-b1.000" stroke="red" stroke-opacity="1.0" stroke-width="1" x1="0.0" x2="100.0" y1="300.0" y2="302.0947" /><line id="ray-b1.000" stroke="red" stroke-opacity="1.0" stroke-width="1" x1="0.0" x2="100.0" y1="300.0" y2="297.9053" /><line id="ray-b1.000" stroke="red" stroke-opacity="1.0" stroke-width="1" x1="0.0" x2="100.0" y1="300.0" y2="293.7085" /><line id="ray-b1.000" stroke="red" stroke-opacity="1.0" stroke-width="1" x1="0.0" x2="100.0" y1="300.0" y2="289.4896" /><line id="ray-b1.000" stroke="red" stroke-opacity="1.0" stroke-width="1" x1="0.0" x2="100.0" y1="300.0" y2="285.2333" /><line id="ray-b1.000" stroke="red" stroke-opacity="1.0" stroke-width="1" x1="0.0" x2="100.0" y1="300.0" y2="280.924" /><line id="ray-b1.000" stroke="red" stroke-opacity="1.0" stroke-width="1" x1="0.0" x2="100.0" y1="300.0" y2="276.5452" /><line id="ray-b1.000" stroke="red" stroke-opacity="1.0" stroke-width="1" x1="0.0" x2="100.0" y1="300.0" y2="272.0795" /><line id="ray-b1.000" stroke="red" stroke-opacity="1.0" stroke-width="1" x1="0.0" x2="100.0" y1="300.0" y2="267.508" /><line id="ray-b1.000" stroke="red" stroke-opacity="1.0" stroke-width="1" x1="0.0" x2="100.0" y1="300.0" y2="262.8103" /><line id="ray-b1.000" stroke="red" stroke-opacity="1.0" stroke-width="1" x1="0.0" x2="100.0" y1="300.0" y2="257.9639" /><line id="ray-b1.000" stroke="red" stroke-opacity="1.0" stroke-width="1" x1="0.0" x2="100.0" y1="300.0" y2="252.9436" /><line id="ray-b1.000" stroke="red" stroke-opacity="1.0" stroke-width="1" x1="0.0" x2="100.0" y1="300.0" y2="247.7213" /><line id="ray-b1.000" stroke="red" stroke-opacity="1.0" stroke-width="1" x1="0.0" x2="100.0" y1="300.0" y2="242.265" /><line id="ray-b1.000" stroke="red" stroke-opacity="1.0" stroke-width="1" x1="0.0" x2="100.0" y1="300.0" y2="236.5381" /><line id="ray-b1.000" stroke="red" stroke-opacity="1.0" stroke-width="1" x1="0.0" x2="100.0" y1="300.0" y2="230.4982" /><line id="ray-b1.000" stroke="red" stroke-opacity="1.0" stroke-width="1" x1="0.0" x2="100.0" y1="300.0" y2="224.0959" /><line id="ray-b1.000" stroke="red" stroke-opacity="1.0" stroke-width="1" x1="0.0" x2="100.0" y1="300.0" y2="217.2728" /><line id="ray-b1.000" stroke="red" stroke-opacity="1.0" stroke-width="1" x1="0.0" x2="100.0" y1="300.0" y2="209.9596" /><line id="ray-b1.000" stroke="red" stroke-opacity="1.0" stroke-width="1" x1="0.0" x2="100.0" y1="300.0" y2="202.0728" /><line id="ray-b1.000" stroke="red" stroke-opacity="1.0" stroke-width="1" x1="0.0" x2="187.8125" y1="300.0" y2="100.0" /><line id="ray-b1.000" stroke="red" stroke-opacity="1.0" stroke-width="1" x1="0.0" x2="172.6354" y1="300.0" y2="100.0" /><line id="ray-b1.000" stroke="red" stroke-opacity="1.0" stroke-width="1" x1="0.0" x2="158.518" y1="300.0" y2="100.0" /><line id="ray-b1.000" stroke="red" stroke-opacity="1.0" stroke-width="1" x1="0.0" x2="145.3085" y1="300.0" y2="100.0" /><line id="ray-b1.000" stroke="red" stroke-opacity="1.0" stroke-width="1" x1="0.0" x2="132.8797" y1="300.0" y2="100.0" /><line id="ray-b1.000" stroke="red" stroke-opacity="1.0" stroke-width="1" x1="0.0" x2="121.1243" y1="300.0" y2="100.0" /><line id="ray-b1.000" stroke="red" stroke-opacity="1.0" stroke-width="1" x1="0.0" x2="109.9509" y1="300.0" y2="100.0" /><line id="ray-b1.000" stroke="red" stroke-opacity="1.0" stroke-width="1" x1="0.0" x2="99.2809" y1="300.0" y2="100.0" /><line id="ray-b1.000" stroke="red" stroke-opacity="1.0" stroke-width="1" x1="0.0" x2="89.0457" y1="300.0" y2="100.0" /><line id="ray-b1.000" stroke="red" stroke-opacity="1.0" stroke-width="1" x1="0.0" x2="79.1856" y1="300.0" y2="100.0" /><line id="ray-b1.000" stroke="red" stroke-opacity="1.0" stroke-width="1" x1="0.0" x2="69.6474" y1="300.0" y2="100.0" /><line id="ray-b1.000" stroke="red" stroke-opacity="1.0" stroke-width="1" x1="0.0" x2="60.3836" y1="300.0" y2="100.0" /><line id="ray-b1.000" stroke="red" stroke-opacity="1.0" stroke-width="1" x1="0.0" x2="51.3513" y1="300.0" y2="100.0" /><line id="ray-b1.000" stroke="red" stroke-opacity="1.0" stroke-width="1" x1="0.0" x2="42.5113" y1="300.0" y2="100.0" /><line id="ray-b1.000" stroke="red" stroke-opacity="1.0" stroke-width="1" x1="0.0" x2="33.8275" y1="300.0" y2="100.0" /><line id="ray-b1.000" stroke="red" stroke-opacity="1.0" stroke-width="1" x1="0.0" x2="25.2659" y1="300.0" y2="100.0" /><line id="ray-b1.000" stroke="red" stroke-opacity="1.0" stroke-width="1" x1="0.0" x2="16.7945" y1="300.0" y2="100.0" /><line id="ray-b1.000" stroke="red" stroke-opacity="1.0" stroke-width="1" x1="0.0" x2="8.3825" y1="300.0" y2="100.0" /><line id="ray-b1.000" stroke="red" stroke-opacity="1.0" stroke-width="1" x1="0.0" x2="0.0" y1="300.0" y2="100.0" /><line id="ray-b1.000" stroke="red" stroke-opacity="1.0" stroke-width="1" x1="0.0" x2="-8.3825" y1="300.0" y2="100.0" /><line id="ray-b1.000" stroke="red" stroke-opacity="1.0" stroke-width="1" x1="0.0" x2="-16.7945" y1="300.0" y2="100.0" /><line id="ray-b1.000" stroke="red" stroke-opacity="1.0" stroke-width="1" x1="0.0" x2="-25.2659" y1="300.0" y2="100.0" /><line id="ray-b1.000" stroke="red" stroke-opacity="1.0" stroke-width="1" x1="0.0" x2="-33.8275" y1="300.0" y2="100.0" /><line id="ray-b1.000" stroke="red" stroke-opacity="1.0" stroke-width="1" x1="0.0" x2="-42.5113" y1="300.0" y2="100.0" /><line id="ray-b1.000" stroke="red" stroke-opacity="1.0" stroke-width="1" x1="0.0" x2="-50.0" y1="300.0" y2="105.2629" /><line id="ray-b1.000" stroke="red" stroke-opacity="1.0" stroke-width="1" x1="0.0" x2="-50.0" y1="300.0" y2="134.392" /><line id="ray-b1.000" stroke="red" stroke-opacity="1.0" stroke-width="1" x1="0.0" x2="-50.0" y1="300.0" y2="156.4196" /><line id="ray-b1.000" stroke="red" stroke-opacity="1.0" stroke-width="1" x1="0.0" x2="-50.0" y1="300.0" y2="173.7144" /><line id="ray-b1.000" stroke="red" stroke-opacity="1.0" stroke-width="1" x1="0.0" x2="-50.0" y1="300.0" y2="187.6982" /><line id="ray-b1.000" stroke="red" stroke-opacity="1.0" stroke-width="1" x1="0.0" x2="-50.0" y1="300.0" y2="199.2757" /><line id="ray-b1.000" stroke="red" stroke-opacity="1.0" stroke-width="1" x1="0.0" x2="-50.0" y1="300.0" y2="209.0503" /><line id="ray-b1.000" stroke="red" stroke-opacity="1.0" stroke-width="1" x1="0.0" x2="-50.0" y1="300.0" y2="217.4402" /><line id="ray-b1.000" stroke="red" stroke-opacity="1.0" stroke-width="1" x1="0.0" x2="-50.0" y1="300.0" y2="224.744" /><line id="ray-b1.000" stroke="red" stroke-opacity="1.0" stroke-width="1" x1="0.0" x2="-50.0" y1="300.0" y2="231.1809" /><line id="ray-b1.000" stroke="red" stroke-opacity="1.0" stroke-width="1" x1="0.0" x2="-50.0" y1="300.0" y2="236.9157" /><line id="ray-b1.000" stroke="red" stroke-opacity="1.0" stroke-width="1" x1="0.0" x2="-50.0" y1="300.0" y2="242.0744" /><line id="ray-b1.000" stroke="red" stroke-opacity="1.0" stroke-width="1" x1="0.0" x2="-50.0" y1="300.0" y2="246.7554" /><line id="ray-b1.000" stroke="red" stroke-opacity="1.0" stroke-width="1" x1="0.0" x2="-50.0" y1="300.0" y2="251.0364" /><line id="ray-b1.000" stroke="red" stroke-opacity="1.0" stroke-width="1" x1="0.0" x2="-50.0" y1="300.0" y2="254.9798" /><line id="ray-b1.000" stroke="red" stroke-opacity="1.0" stroke-width="1" x1="0.0" x2="-50.0" y1="300.0" y2="258.6364" /><line id="ray-b1.000" stroke="red" stroke-opacity="1.0" stroke-width="1" x1="0.0" x2="-50.0" y1="300.0" y2="262.0479" /><line id="ray-b1.000" stroke="red" stroke-opacity="1.0" stroke-width="1" x1="0.0" x2="-50.0" y1="300.0" y2="265.2491" /><line id="ray-b1.000" stroke="red" stroke-opacity="1.0" stroke-width="1" x1="0.0" x2="-50.0" y1="300.0" y2="268.269" /><line id="ray-b1.000" stroke="red" stroke-opacity="1.0" stroke-width="1" x1="0.0" x2="-50.0" y1="300.0" y2="271.1325" /><line id="ray-b1.000" stroke="red" stroke-opacity="1.0" stroke-width="1" x1="0.0" x2="-50.0" y1="300.0" y2="273.8606" /><line id="ray-b1.000" stroke="red" stroke-opacity="1.0" stroke-width="1" x1="0.0" x2="-50.0" y1="300.0" y2="276.4718" /><line id="ray-b1.000" stroke="red" stroke-opacity="1.0" stroke-width="1" x1="0.0" x2="-50.0" y1="300.0" y2="278.9819" /><line id="ray-b1.000" stroke="red" stroke-opacity="1.0" stroke-width="1" x1="0.0" x2="-50.0" y1="300.0" y2="281.4052" /><line id="ray-b1.000" stroke="red" stroke-opacity="1.0" stroke-width="1" x1="0.0" x2="-50.0" y1="300.0" y2="283.754" /><line id="ray-b1.000" stroke="red" stroke-opacity="1.0" stroke-width="1" x1="0.0" x2="-50.0" y1="300.0" y2="286.0397" /><line id="ray-b1.000" stroke="red" stroke-opacity="1.0" stroke-width="1" x1="0.0" x2="-50.0" y1="300.0" y2="288.2726" /><line id="ray-b1.000" stroke="red" stroke-opacity="1.0" stroke-width="1" x1="0.0" x2="-50.0" y1="300.0" y2="290.462" /><line id="ray-b1.000" stroke="red" stroke-opacity="1.0" stroke-width="1" x1="0.0" x2="-50.0" y1="300.0" y2="292.6166" /><line id="ray-b1.000" stroke="red" stroke-opacity="1.0" stroke-width="1" x1="0.0" x2="-50.0" y1="300.0" y2="294.7448" /><line id="ray-b1.000" stroke="red" stroke-opacity="1.0" stroke-width="1" x1="0.0" x2="-50.0" y1="300.0" y2="296.8543" /><line id="ray-b1.000" stroke="red" stroke-opacity="1.0" stroke-width="1" x1="0.0" x2="-50.0" y1="300.0" y2="298.9526" /><line id="ray-b1.000" stroke="red" stroke-opacity="1.0" stroke-width="1" x1="0.0" x2="-50.0" y1="300.0" y2="301.0474" /><line id="ray-b1.000" stroke="red" stroke-opacity="1.0" stroke-width="1" x1="0.0" x2="-50.0" y1="300.0" y2="303.1457" /><line id="ray-b1.000" stroke="red" stroke-opacity="1.0" stroke-width="1" x1="0.0" x2="-50.0" y1="300.0" y2="305.2552" /><line id="ray-b1.000" stroke="red" stroke-opacity="1.0" stroke-width="1" x1="0.0" x2="-50.0" y1="300.0" y2="307.3834" /><line id="ray-b1.000" stroke="red" stroke-opacity="1.0" stroke-width="1" x1="0.0" x2="-50.0" y1="300.0" y2="309.538" /><line id="ray-b1.000" stroke="red" stroke-opacity="1.0" stroke-width="1" x1="0.0" x2="-50.0" y1="300.0" y2="311.7274" /><line id="ray-b1.000" stroke="red" stroke-opacity="1.0" stroke-width="1" x1="0.0" x2="-50.0" y1="300.0" y2="313.9603" /><line id="ray-b1.000" stroke="red" stroke-opacity="1.0" stroke-width="1" x1="0.0" x2="-50.0" y1="300.0" y2="316.246" /><line id="ray-b1.000" stroke="red" stroke-opacity="1.0" stroke-width="1" x1="0.0" x2="-50.0" y1="300.0" y2="318.5948" /><line id="ray-b1.000" stroke="red" stroke-opacity="1.0" stroke-width="1" x1="0.0" x2="-50.0" y1="300.0" y2="321.0181" /><line id="ray-b1.000" stroke="red" stroke-opacity="1.0" stroke-width="1" x1="0.0" x2="-50.0" y1="300.0" y2="323.5282" /><line id="ray-b1.000" stroke="red" stroke-opacity="1.0" stroke-width="1" x1="0.0" x2="-50.0" y1="300.0" y2="326.1394" /><line id="ray-b1.000" stroke="red" stroke-opacity="1.0" stroke-width="1" x1="0.0" x2="-50.0" y1="300.0" y2="328.8675" /><line id="ray-b1.000" stroke="red" stroke-opacity="1.0" stroke-width="1" x1="0.0" x2="-50.0" y1="300.0" y2="331.731" /><line id="ray-b1.000" stroke="red" stroke-opacity="1.0" stroke-width="1" x1="0.0" x2="-50.0" y1="300.0" y2="334.7509" /><line id="ray-b1.000" stroke="red" stroke-opacity="1.0" stroke-width="1" x1="0.0" x2="-50.0" y1="300.0" y2="337.9521" /><line id="ray-b1.000" stroke="red" stroke-opacity="1.0" stroke-width="1" x1="0.0" x2="-50.0" y1="300.0" y2="341.3636" /><line id="ray-b1.000" stroke="red" stroke-opacity="1.0" stroke-width="1" x1="0.0" x2="-50.0" y1="300.0" y2="345.0202" /><line id="ray-b1.000" stroke="red" stroke-opacity="1.0" stroke-width="1" x1="0.0" x2="-50.0" y1="300.0" y2="348.9636" /><line id="ray-b1.000" stroke="red" stroke-opacity="1.0" stroke-width="1" x1="0.0" x2="-50.0" y1="300.0" y2="353.2446" /><line id="ray-b1.000" stroke="red" stroke-opacity="1.0" stroke-width="1" x1="0.0" x2="-50.0" y1="300.0" y2="357.9256" /><line id="ray-b1.000" stroke="red" stroke-opacity="1.0" stroke-width="1" x1="0.0" x2="-50.0" y1="300.0" y2="363.0843" /><line id="ray-b1.000" stroke="red" stroke-opacity="1.0" stroke-width="1" x1="0.0" x2="-50.0" y1="300.0" y2="368.8191" /><line id="ray-b1.000" stroke="red" stroke-opacity="1.0" stroke-width="1" x1="0.0" x2="-50.0" y1="300.0" y2="375.256" /><line id="ray-b1.000" stroke="red" stroke-opacity="1.0" stroke-width="1" x1="0.0" x2="-50.0" y1="300.0" y2="382.5598" /><line id="ray-b1.000" stroke="red" stroke-opacity="1.0" stroke-width="1" x1="0.0" x2="-50.0" y1="300.0" y2="390.9497" /><line id="ray-b1.000" stroke="red" stroke-opacity="1.0" stroke-width="1" x1="0.0" x2="-50.0" y1="300.0" y2="400.7243" /><line id="ray-b1.000" stroke="red" stroke-opacity="1.0" stroke-width="1" x1="0.0" x2="-50.0" y1="300.0" y2="412.3018" /><line id="ray-b1.000" stroke="red" stroke-opacity="1.0" stroke-width="1" x1="0.0" x2="-50.0" y1="300.0" y2="426.2856" /><line id="ray-b1.000" stroke="red" stroke-opacity="1.0" stroke-width="1" x1="0.0" x2="-50.0" y1="300.0" y2="443.5804" /><line id="ray-b1.000" stroke="red" stroke-opacity="1.0" stroke-width="1" x1="0.0" x2="-50.0" y1="300.0" y2="465.608" /><line id="ray-b1.000" stroke="red" stroke-opacity="1.0" stroke-width="1" x1="0.0" x2="-50.0" y1="300.0" y2="494.7371" /><line id="ray-b1.000" stroke="red" stroke-opacity="1.0" stroke-width="1" x1="0.0" x2="-42.5113" y1="300.0" y2="500.0" /><line id="ray-b1.000" stroke="red" stroke-opacity="1.0" stroke-width="1" x1="0.0" x2="-33.8275" y1="300.0" y2="500.0" /><line id="ray-b1.000" stroke="red" stroke-opacity="1.0" stroke-width="1" x1="0.0" x2="-25.2659" y1="300.0" y2="500.0" /><line id="ray-b1.000" stroke="red" stroke-opacity="1.0" stroke-width="1" x1="0.0" x2="-16.7945" y1="300.0" y2="500.0" /><line id="ray-b1.000" stroke="red" stroke-opacity="1.0" stroke-width="1" x1="0.0" x2="-8.3825" y1="300.0" y2="500.0" /><line id="ray-b1.000" stroke="red" stroke-opacity="1.0" stroke-width="1" x1="100.0" x2="300.0" y1="397.9272" y2="397.9272" /><line id="ray-b1.000" stroke="red" stroke-opacity="1.0" stroke-width="1" x1="100.0" x2="300.0" y1="390.0404" y2="390.0404" /><line id="ray-b1.000" stroke="red" stroke-opacity="1.0" stroke-width="1" x1="100.0" x2="300.0" y1="382.7272" y2="382.7272" /><line id="ray-b1.000" stroke="red" stroke-opacity="1.0" stroke-width="1" x1="100.0" x2="300.0" y1="375.9041" y2="375.9041" /><line id="ray-b1.000" stroke="red" stroke-opacity="1.0" stroke-width="1" x1="100.0" x2="300.0" y1="369.5018" y2="369.5018" /><line id="ray-b1.000" stroke="red" stroke-opacity="1.0" stroke-width="1" x1="100.0" x2="300.0" y1="363.4619" y2="363.4619" /><line id="ray-b1.000" stroke="red" stroke-opacity="1.0" stroke-width="1" x1="100.0" x2="300.0" y1="357.735" y2="357.735" /><line id="ray-b1.000" stroke="red" stroke-opacity="1.0" stroke-width="1" x1="100.0" x2="300.0" y1="352.2787" y2="352.2787" /><line id="ray-b1.000" stroke="red" stroke-opacity="1.0" stroke-width="1" x1="100.0" x2="300.0" y1="347.0564" y2="347.0564" /><line id="ray-b1.000" stroke="red" stroke-opacity="1.0" stroke-width="1" x1="100.0" x2="300.0" y1="342.0361" y2="342.0361" /><line id="ray-b1.000" stroke="red" stroke-opacity="1.0" stroke-width="1" x1="100.0" x2="300.0" y1="337.1897" y2="337.1897" /><line id="ray-b1.000" stroke="red" stroke-opacity="1.0" stroke-width="1" x1="100.0" x2="300.0" y1="332.492" y2="332.492" /><line id="ray-b1.000" stroke="red" stroke-opacity="1.0" stroke-width="1" x1="100.0" x2="300.0" y1="327.9205" y2="327.9205" /><line id="ray-b1.000" stroke="red" stroke-opacity="1.0" stroke-width="1" x1="100.0" x2="300.0" y1="323.4548" y2="323.4548" /><line id="ray-b1.000" stroke="red" stroke-opacity="1.0" stroke-width="1" x1="100.0" x2="300.0" y1="319.076" y2="319.076" /><line id="ray-b1.000" stroke="red" stroke-opacity="1.0" stroke-width="1" x1="100.0" x2="300.0" y1="314.7667" y2="314.7667" /><line id="ray-b1.000" stroke="red" stroke-opacity="1.0" stroke-width="1" x1="100.0" x2="300.0" y1="310.5104" y2="310.5104" /><line id="ray-b1.000" stroke="red" stroke-opacity="1.0" stroke-width="1" x1="100.0" x2="300.0" y1="306.2915" y2="306.2915" /><line id="ray-b1.000" stroke="red" stroke-opacity="1.0" stroke-width="1" x1="100.0" x2="300.0" y1="302.0947" y2="302.0947" /><line id="ray-b1.000" stroke="red" stroke-opacity="1.0" stroke-width="1" x1="100.0" x2="300.0" y1="297.9053" y2="297.9053" /><line id="ray-b1.000" stroke="red" stroke-opacity="1.0" stroke-width="1" x1="100.0" x2="300.0" y1="293.7085" y2="293.7085" /><line id="ray-b1.000" stroke="red" stroke-opacity="1.0" stroke-width="1" x1="100.0" x2="300.0" y1="289.4896" y2="289.4896" /><line id="ray-b1.000" stroke="red" stroke-opacity="1.0" stroke-width="1" x1="100.0" x2="300.0" y1="285.2333" y2="285.2333" /><line id="ray-b1.000" stroke="red" stroke-opacity="1.0" stroke-width="1" x1="100.0" x2="300.0" y1="280.924" y2="280.924" /><line id="ray-b1.000" stroke="red" stroke-opacity="1.0" stroke-width="1" x1="100.0" x2="300.0" y1="276.5452" y2="276.5452" /><line id="ray-b1.000" stroke="red" stroke-opacity="1.0" stroke-width="1" x1="100.0" x2="300.0" y1="272.0795" y2="272.0795" /><line id="ray-b1.000" stroke="red" stroke-opacity="1.0" stroke-width="1" x1="100.0" x2="300.0" y1="267.508" y2="267.508" /><line id="ray-b1.000" stroke="red" stroke-opacity="1.0" stroke-width="1" x1="100.0" x2="300.0" y1="262.8103" y2="262.8103" /><line id="ray-b1.000" stroke="red" stroke-opacity="1.0" stroke-width="1" x1="100.0" x2="300.0" y1="257.9639" y2="257.9639" /><line id="ray-b1.000" stroke="red" stroke-opacity="1.0" stroke-width="1" x1="100.0" x2="300.0" y1="252.9436" y2="252.9436" /><line id="ray-b1.000" stroke="red" stroke-opacity="1.0" stroke-width="1" x1="100.0" x2="300.0" y1="247.7213" y2="247.7213" /><line id="ray-b1.000" stroke="red" stroke-opacity="1.0" stroke-width="1" x1="100.0" x2="300.0" y1="242.265" y2="242.265" /><line id="ray-b1.000" stroke="red" stroke-opacity="1.0" stroke-width="1" x1="100.0" x2="300.0" y1="236.5381" y2="236.5381" /><line id="ray-b1.000" stroke="red" stroke-opacity="1.0" stroke-width="1" x1="100.0" x2="300.0" y1="230.4982" y2="230.4982" /><line id="ray-b1.000" stroke="red" stroke-opacity="1.0" stroke-width="1" x1="100.0" x2="300.0" y1="224.0959" y2="224.0959" /><line id="ray-b1.000" stroke="red" stroke-opacity="1.0" stroke-width="1" x1="100.0" x2="300.0" y1="217.2728" y2="217.2728" /><line id="ray-b1.000" stroke="red" stroke-opacity="1.0" stroke-width="1" x1="100.0" x2="300.0" y1="209.9596" y2="209.9596" /><line id="ray-b1.000" stroke="red" stroke-opacity="1.0" stroke-width="1" x1="100.0" x2="300.0" y1="202.0728" y2="202.0728" /></g><g id="labels" transform="scale(1, -1)"><text fill="orange" font-family="sans-serif" font-size="12px" transform="scale(1, -1)" x="7.0" y="307">Source</text><text fill="blue" font-family="sans-serif" font-size="12px" text-anchor="middle" transform="scale(1, -1)" x="100.0" y="315.0">Lens (f=100)</text><text fill="black" font-family="sans-serif" font-size="12px" text-anchor="middle" transform="scale(1, -1)" x="300.0" y="305.0">Screen</text></g></svg>