<?xml version="1.0" encoding="utf-8" ?>
<svg baseProfile="tiny" height="600px" version="1.2" viewBox="0,-200,300,200" width="800px" xmlns="http://www.w3.org/2000/svg" xmlns:ev="http://www.w3.org/2001/xml-events" xmlns:xlink="http://www.w3.org/1999/xlink"><defs /><rect fill="white" height="200" width="300" x="0" y="-200" /><g id="objects" transform="scale(1, -1)"><line stroke="blue" stroke-width="2" x1="167" x2="274" y1="61" y2="61" /><line stroke="blue" stroke-width="2" x1="274" x2="188" y1="61" y2="104" /><line stroke="blue" stroke-width="2" x1="188" x2="167" y1="104" y2="61" /><line stroke="blue" stroke-width="2" x1="167" x2="274" y1="55" y2="55" /><line stroke="blue" stroke-width="2" x1="274" x2="253" y1="55" y2="13" /><line stroke="blue" stroke-width="2" x1="253" x2="167" y1="13" y2="55" /></g><g id="rays" transform="scale(1, -1)"><line id="ray-b1.000" stroke="red" stroke-opacity="0.8" stroke-width="1.5" x1="272.0" x2="255.1282" y1="4.0" y2="17.2564" /><line id="ray-b0.040" stroke="red" stroke-opacity="0.8" stroke-width="1.5" x1="255.1282" x2="300.0" y1="17.2564" y2="5.2558" /><line id="ray-b0.960" stroke="red" stroke-opacity="0.8" stroke-width="1.5" x1="255.1282" x2="199.7228" y1="17.2564" y2="55.0" /><line id="ray-b0.960" stroke="red" stroke-opacity="0.8" stroke-width="1.5" x1="199.7228" x2="186.0592" y1="55.0" y2="45.692" /><line id="ray-b0.052" stroke="red" stroke-opacity="0.8" stroke-width="1.5" x1="186.0592" x2="185.461" y1="45.692" y2="55.0" /><line id="ray-b0.908" stroke="red" stroke-opacity="0.8" stroke-width="1.5" x1="186.0592" x2="26.2242" y1="45.692" y2="0.0" /><line id="ray-b0.050" stroke="red" stroke-opacity="0.8" stroke-width="1.5" x1="185.461" x2="184.8811" y1="55.0" y2="61.0" /><line id="ray-b0.048" stroke="red" stroke-opacity="0.8" stroke-width="1.5" x1="184.8811" x2="182.8017" y1="61.0" y2="93.3559" /><line id="ray-b0.048" stroke="red" stroke-opacity="0.8" stroke-width="1.5" x1="182.8017" x2="194.0131" y1="93.3559" y2="100.9934" /><line id="ray-b0.043" stroke="red" stroke-opacity="0.8" stroke-width="1.5" x1="194.0131" x2="300.0" y1="100.9934" y2="132.2947" /></g><g id="labels" transform="scale(1, -1)"><text fill="blue" font-family="sans-serif" font-size="12px" text-anchor="middle" transform="scale(1, -1)" x="220.5" y="66.0">MeasPrism</text><text fill="blue" font-family="sans-serif" font-size="12px" text-anchor="middle" transform="scale(1, -1)" x="220.5" y="60.0">IllPrism</text></g></svg>