<?xml version="1.0" encoding="utf-8" ?>
<svg baseProfile="tiny" height="600px" version="1.2" viewBox="0,-200,300,200" width="800px" xmlns="http://www.w3.org/2000/svg" xmlns:ev="http://www.w3.org/2001/xml-events" xmlns:xlink="http://www.w3.org/1999/xlink"><defs /><rect fill="white" height="200" width="300" x="0" y="-200" /><g id="objects" transform="scale(1, -1)"><line stroke="blue" stroke-width="2" x1="167" x2="274" y1="61" y2="61" /><line stroke="blue" stroke-width="2" x1="274" x2="188" y1="61" y2="104" /><line stroke="blue" stroke-width="2" x1="188" x2="167" y1="104" y2="61" /><line stroke="green" stroke-width="2" x1="167" x2="274" y1="61" y2="61" /><line stroke="green" stroke-width="2" x1="274" x2="274" y1="61" y2="55" /><line stroke="green" stroke-width="2" x1="274" x2="167" y1="55" y2="55" /><line stroke="green" stroke-width="2" x1="167" x2="167" y1="55" y2="61" /><line stroke="blue" stroke-width="2" x1="167" x2="274" y1="55" y2="55" /><line stroke="blue" stroke-width="2" x1="274" x2="253" y1="55" y2="13" /><line stroke="blue" stroke-width="2" x1="253" x2="167" y1="13" y2="55" /></g><g id="rays" transform="scale(1, -1)"><g id="ray-b0.074"><line stroke="rgb(255, 0, 0)" stroke-opacity="0.0744" stroke-width="1.5" x1="255.1282" x2="282.7772" y1="17.2564" y2="9.8619" /><polygon fill="rgb(255, 0, 0)" fill-opacity="0.0744" points="282.1313,7.4468 283.4231,12.277 287.8012,9.2946 287.4137,7.8456" /><line stroke="rgb(255, 0, 0)" stroke-opacity="0.0744" stroke-width="1.5" x1="287.6074" x2="300.0" y1="8.5701" y2="5.2558" /></g><g id="ray-b0.926"><line stroke="rgb(255, 0, 0)" stroke-opacity="0.9256" stroke-width="1.5" x1="255.1282" x2="218.5157" y1="17.2564" y2="41.1772" /><polygon fill="rgb(255, 0, 0)" fill-opacity="0.9256" points="219.8831,43.2701 217.1483,39.0843 213.9196,43.2841 214.7401,44.5399" /><line stroke="rgb(255, 0, 0)" stroke-opacity="0.9256" stroke-width="1.5" x1="214.3299" x2="197.3589" y1="43.912" y2="55.0" /></g><g id="ray-b0.023"><line stroke="rgb(255, 0, 0)" stroke-opacity="0.0232" stroke-width="1.5" x1="197.3589" x2="189.6322" y1="55.0" y2="49.9518" /><polygon fill="rgb(255, 0, 0)" fill-opacity="0.0232" points="188.9959,50.9257 190.2685,48.9778 188.0945,48.0512 187.2741,49.307" /><line stroke="rgb(255, 0, 0)" stroke-opacity="0.0232" stroke-width="1.5" x1="187.6843" x2="184.3729" y1="48.6791" y2="46.5156" /></g><g id="ray-b0.902"><line stroke="rgb(255, 0, 0)" stroke-opacity="0.9023" stroke-width="1.5" x1="197.3589" x2="189.2272" y1="55.0" y2="58.57" /><polygon fill="rgb(255, 0, 0)" fill-opacity="0.9023" points="189.6772,59.595 188.7772,57.545 186.8758,58.7833 187.4787,60.1567" /><line stroke="rgb(255, 0, 0)" stroke-opacity="0.9023" stroke-width="1.5" x1="187.1773" x2="183.6923" y1="59.47" y2="61.0" /></g><g id="ray-b0.018"><line stroke="rgb(255, 0, 0)" stroke-opacity="0.018" stroke-width="1.5" x1="184.3729" x2="63.343" y1="46.5156" y2="45.9166" /><polygon fill="rgb(255, 0, 0)" fill-opacity="0.018" points="63.3306,48.4166 63.3554,43.4167 58.3468,45.1419 58.3394,46.6419" /><line stroke="rgb(255, 0, 0)" stroke-opacity="0.018" stroke-width="1.5" x1="58.3431" x2="0.0" y1="45.8919" y2="45.6032" /></g><g id="ray-b0.022"><line stroke="rgb(255, 0, 0)" stroke-opacity="0.0225" stroke-width="1.5" x1="183.6923" x2="175.5606" y1="61.0" y2="57.43" /><polygon fill="rgb(255, 0, 0)" fill-opacity="0.0225" points="175.1106,58.455 176.0106,56.405 173.8121,55.8433 173.2091,57.2167" /><line stroke="rgb(255, 0, 0)" stroke-opacity="0.0225" stroke-width="1.5" x1="173.5106" x2="170.0256" y1="56.53" y2="55.0" /></g><g id="ray-b0.880"><line stroke="rgb(255, 0, 0)" stroke-opacity="0.8799" stroke-width="1.5" x1="183.6923" x2="176.1628" y1="61.0" y2="65.9193" /><polygon fill="rgb(255, 0, 0)" fill-opacity="0.8799" points="176.7829,66.8684 175.5428,64.9703 173.8544,66.5317 174.6749,67.7874" /><line stroke="rgb(255, 0, 0)" stroke-opacity="0.8799" stroke-width="1.5" x1="174.2647" x2="171.0378" y1="67.1595" y2="69.2678" /></g><line id="ray-b0.022" stroke="rgb(255, 0, 0)" stroke-opacity="0.0218" stroke-width="1.5" x1="170.0256" x2="168.7314" y1="55.0" y2="54.1544" /><g id="ray-b0.065"><line stroke="rgb(255, 0, 0)" stroke-opacity="0.0654" stroke-width="1.5" x1="171.0378" x2="185.4055" y1="69.2678" y2="64.3485" /><polygon fill="rgb(255, 0, 0)" fill-opacity="0.0654" points="184.7854,62.5374 186.0256,66.1595 189.2706,63.8179 188.7847,62.3987" /><line stroke="rgb(255, 0, 0)" stroke-opacity="0.0654" stroke-width="1.5" x1="189.0277" x2="195.1853" y1="63.1083" y2="61.0" /></g><g id="ray-b0.814"><line stroke="rgb(255, 0, 0)" stroke-opacity="0.8145" stroke-width="1.5" x1="171.0378" x2="63.1639" y1="69.2678" y2="155.2996" /><polygon fill="rgb(255, 0, 0)" fill-opacity="0.8145" points="64.7227,157.2541 61.6052,153.3451 58.7872,157.8308 59.7225,159.0035" /><line stroke="rgb(255, 0, 0)" stroke-opacity="0.8145" stroke-width="1.5" x1="59.2549" x2="7.1149" y1="158.4172" y2="200.0" /></g><g id="ray-b0.017"><line stroke="rgb(255, 0, 0)" stroke-opacity="0.0169" stroke-width="1.5" x1="168.7314" x2="58.1813" y1="54.1544" y2="53.6073" /><polygon fill="rgb(255, 0, 0)" fill-opacity="0.0169" points="58.169,56.1073 58.1937,51.1074 53.1851,52.8326 53.1777,54.3326" /><line stroke="rgb(255, 0, 0)" stroke-opacity="0.0169" stroke-width="1.5" x1="53.1814" x2="0.0" y1="53.5826" y2="53.3194" /></g><g id="ray-b0.065"><line stroke="rgb(255, 0, 0)" stroke-opacity="0.0654" stroke-width="1.5" x1="195.1853" x2="224.163" y1="61.0" y2="70.9216" /><polygon fill="rgb(255, 0, 0)" fill-opacity="0.0654" points="224.9728,68.5564 223.3532,73.2868 228.6505,73.2508 229.1364,71.8317" /><line stroke="rgb(255, 0, 0)" stroke-opacity="0.0654" stroke-width="1.5" x1="228.8934" x2="241.9658" y1="72.5413" y2="77.0171" /></g><g id="ray-b0.065"><line stroke="rgb(255, 0, 0)" stroke-opacity="0.0654" stroke-width="1.5" x1="241.9658" x2="245.0567" y1="77.0171" y2="67.4869" /><polygon fill="rgb(255, 0, 0)" fill-opacity="0.0654" points="243.8554,67.0973 246.258,67.8765 246.5493,65.3157 245.1225,64.853" /><line stroke="rgb(255, 0, 0)" stroke-opacity="0.0654" stroke-width="1.5" x1="245.8359" x2="247.1606" y1="65.0844" y2="61.0" /></g><line id="ray-b0.065" stroke="rgb(255, 0, 0)" stroke-opacity="0.0652" stroke-width="1.5" x1="247.1606" x2="249.3113" y1="61.0" y2="55.0" /><g id="ray-b0.065"><line stroke="rgb(255, 0, 0)" stroke-opacity="0.0651" stroke-width="1.5" x1="249.3113" x2="255.0909" y1="55.0" y2="37.1797" /><polygon fill="rgb(255, 0, 0)" fill-opacity="0.0651" points="252.8447,36.4512 257.3372,37.9082 257.2614,32.9186 255.8346,32.4558" /><line stroke="rgb(255, 0, 0)" stroke-opacity="0.0651" stroke-width="1.5" x1="256.548" x2="259.025" y1="32.6872" y2="25.0499" /></g><g id="ray-b0.065"><line stroke="rgb(255, 0, 0)" stroke-opacity="0.0651" stroke-width="1.5" x1="259.025" x2="248.2873" y1="25.0499" y2="21.3735" /><polygon fill="rgb(255, 0, 0)" fill-opacity="0.0651" points="247.8239,22.7269 248.7507,20.02 245.8232,19.7371 245.3374,21.1562" /><line stroke="rgb(255, 0, 0)" stroke-opacity="0.0651" stroke-width="1.5" x1="245.5803" x2="240.9784" y1="20.4466" y2="18.871" /></g><g id="ray-b0.065"><line stroke="rgb(255, 0, 0)" stroke-opacity="0.0651" stroke-width="1.5" x1="240.9784" x2="233.4401" y1="18.871" y2="40.7142" /><polygon fill="rgb(255, 0, 0)" fill-opacity="0.0651" points="235.8033,41.5298 231.0768,39.8986 231.0999,45.196 232.5179,45.6853" /><line stroke="rgb(255, 0, 0)" stroke-opacity="0.0651" stroke-width="1.5" x1="231.8089" x2="228.5098" y1="45.4407" y2="55.0" /></g><line id="ray-b0.065" stroke="rgb(255, 0, 0)" stroke-opacity="0.065" stroke-width="1.5" x1="228.5098" x2="226.2181" y1="55.0" y2="61.0" /><g id="ray-b0.065"><line stroke="rgb(255, 0, 0)" stroke-opacity="0.0648" stroke-width="1.5" x1="226.2181" x2="220.2892" y1="61.0" y2="78.1796" /><polygon fill="rgb(255, 0, 0)" fill-opacity="0.0648" points="222.4547,78.9269 218.1237,77.4322 218.0855,82.2659 219.5035,82.7552" /><line stroke="rgb(255, 0, 0)" stroke-opacity="0.0648" stroke-width="1.5" x1="218.7945" x2="216.2536" y1="82.5105" y2="89.8732" /></g><g id="ray-b0.065"><line stroke="rgb(255, 0, 0)" stroke-opacity="0.0648" stroke-width="1.5" x1="216.2536" x2="190.6922" y1="89.8732" y2="81.6518" /><polygon fill="rgb(255, 0, 0)" fill-opacity="0.0648" points="189.9268,84.0317 191.4577,79.2718 186.162,79.4068 185.7027,80.8348" /><line stroke="rgb(255, 0, 0)" stroke-opacity="0.0648" stroke-width="1.5" x1="185.9324" x2="174.5502" y1="80.1208" y2="76.4599" /></g><g id="ray-b0.065"><line stroke="rgb(255, 0, 0)" stroke-opacity="0.0648" stroke-width="1.5" x1="174.5502" x2="177.9184" y1="76.4599" y2="67.2613" /><polygon fill="rgb(255, 0, 0)" fill-opacity="0.0648" points="176.7589,66.8367 179.0779,67.6858 179.4719,65.2002 178.0633,64.6844" /><line stroke="rgb(255, 0, 0)" stroke-opacity="0.0648" stroke-width="1.5" x1="178.7676" x2="180.2111" y1="64.9423" y2="61.0" /></g><line id="ray-b0.065" stroke="rgb(255, 0, 0)" stroke-opacity="0.0647" stroke-width="1.5" x1="180.2111" x2="182.6464" y1="61.0" y2="55.0" /><line id="ray-b0.065" stroke="rgb(255, 0, 0)" stroke-opacity="0.0646" stroke-width="1.5" x1="182.6464" x2="186.0537" y1="55.0" y2="45.6947" /><g id="ray-b0.065"><line stroke="rgb(255, 0, 0)" stroke-opacity="0.0646" stroke-width="1.5" x1="186.0537" x2="203.2676" y1="45.6947" y2="51.2314" /><polygon fill="rgb(255, 0, 0)" fill-opacity="0.0646" points="203.9655,49.0615 202.5697,53.4012 207.3777,53.3411 207.8369,51.9132" /><line stroke="rgb(255, 0, 0)" stroke-opacity="0.0646" stroke-width="1.5" x1="207.6073" x2="214.9847" y1="52.6272" y2="55.0" /></g><g id="ray-b0.065"><line stroke="rgb(255, 0, 0)" stroke-opacity="0.0646" stroke-width="1.5" x1="214.9847" x2="246.6672" y1="55.0" y2="44.8098" /><polygon fill="rgb(255, 0, 0)" fill-opacity="0.0646" points="245.9017,42.4298 247.4326,47.1897 251.6567,43.9928 251.1974,42.5649" /><line stroke="rgb(255, 0, 0)" stroke-opacity="0.0646" stroke-width="1.5" x1="251.427" x2="265.8241" y1="43.2788" y2="38.6482" /></g><g id="ray-b0.060"><line stroke="rgb(255, 0, 0)" stroke-opacity="0.0598" stroke-width="1.5" x1="265.8241" x2="286.2692" y1="38.6482" y2="34.6178" /><polygon fill="rgb(255, 0, 0)" fill-opacity="0.0598" points="285.7856,32.165 286.7527,37.0705 291.3198,34.3865 291.0297,32.9148" /><line stroke="rgb(255, 0, 0)" stroke-opacity="0.0598" stroke-width="1.5" x1="291.1747" x2="300.0" y1="33.6507" y2="31.9109" /></g></g><g id="labels" transform="scale(1, -1)"><text fill="blue" font-family="sans-serif" font-size="12px" text-anchor="middle" transform="scale(1, -1)" x="220.5" y="66.0">Prism</text><text fill="green" font-family="sans-serif" font-size="12px" text-anchor="middle" transform="scale(1, -1)" x="220.5" y="66.0">Medium</text><text fill="blue" font-family="sans-serif" font-size="12px" text-anchor="middle" transform="scale(1, -1)" x="220.5" y="60.0">Prism</text></g></svg>