<?xml version="1.0" encoding="utf-8" ?>
<svg baseProfile="tiny" height="600px" version="1.2" viewBox="0,-250,300,200" width="800px" xmlns="http://www.w3.org/2000/svg" xmlns:ev="http://www.w3.org/2001/xml-events" xmlns:xlink="http://www.w3.org/1999/xlink"><defs /><rect fill="white" height="200" width="300" x="0" y="-250" /><g id="objects" transform="scale(1, -1)"><line stroke="blue" stroke-width="2" x1="100" x2="200" y1="200" y2="200" /><line stroke="blue" stroke-width="2" x1="200" x2="150" y1="200" y2="113.4" /><line stroke="blue" stroke-width="2" x1="150" x2="100" y1="113.4" y2="200" /></g><g id="rays" transform="scale(1, -1)"><line id="ray-b1.000" stroke="red" stroke-opacity="0.8" stroke-width="1.5" x1="90.0" x2="110.7181" y1="140.0" y2="181.4362" /><line id="ray-b1.000" stroke="red" stroke-opacity="0.8" stroke-width="1.5" x1="90.0" x2="111.2885" y1="140.0" y2="180.4482" /><line id="ray-b1.000" stroke="red" stroke-opacity="0.8" stroke-width="1.5" x1="90.0" x2="111.8913" y1="140.0" y2="179.4043" /><line id="ray-b1.000" stroke="red" stroke-opacity="0.8" stroke-width="1.5" x1="90.0" x2="112.5291" y1="140.0" y2="178.2995" /><line id="ray-b1.000" stroke="red" stroke-opacity="0.8" stroke-width="1.5" x1="90.0" x2="113.2053" y1="140.0" y2="177.1285" /><line id="ray-b1.000" stroke="red" stroke-opacity="0.8" stroke-width="1.5" x1="90.0" x2="113.9233" y1="140.0" y2="175.8849" /><line id="ray-b1.000" stroke="red" stroke-opacity="0.8" stroke-width="1.5" x1="90.0" x2="114.6871" y1="140.0" y2="174.5619" /><line id="ray-b1.000" stroke="red" stroke-opacity="0.8" stroke-width="1.5" x1="90.0" x2="115.5013" y1="140.0" y2="173.1517" /><line id="ray-b1.000" stroke="red" stroke-opacity="0.8" stroke-width="1.5" x1="90.0" x2="116.3711" y1="140.0" y2="171.6453" /><line id="ray-b1.000" stroke="red" stroke-opacity="0.8" stroke-width="1.5" x1="90.0" x2="117.3023" y1="140.0" y2="170.0325" /><line id="ray-b0.042" stroke="red" stroke-opacity="0.8" stroke-width="1.5" x1="110.7181" x2="0.0" y1="181.4362" y2="188.079" /><line id="ray-b0.958" stroke="red" stroke-opacity="0.8" stroke-width="1.5" x1="110.7181" x2="125.4574" y1="181.4362" y2="200.0" /><line id="ray-b0.042" stroke="red" stroke-opacity="0.8" stroke-width="1.5" x1="111.2885" x2="0.0" y1="180.4482" y2="184.8013" /><line id="ray-b0.958" stroke="red" stroke-opacity="0.8" stroke-width="1.5" x1="111.2885" x2="127.2152" y1="180.4482" y2="200.0" /><line id="ray-b0.042" stroke="red" stroke-opacity="0.8" stroke-width="1.5" x1="111.8913" x2="0.0" y1="179.4043" y2="181.2479" /><line id="ray-b0.958" stroke="red" stroke-opacity="0.8" stroke-width="1.5" x1="111.8913" x2="129.1433" y1="179.4043" y2="200.0" /><line id="ray-b0.041" stroke="red" stroke-opacity="0.8" stroke-width="1.5" x1="112.5291" x2="0.0" y1="178.2995" y2="177.3823" /><line id="ray-b0.959" stroke="red" stroke-opacity="0.8" stroke-width="1.5" x1="112.5291" x2="131.2697" y1="178.2995" y2="200.0" /><line id="ray-b0.041" stroke="red" stroke-opacity="0.8" stroke-width="1.5" x1="113.2053" x2="0.0" y1="177.1285" y2="173.1617" /><line id="ray-b0.959" stroke="red" stroke-opacity="0.8" stroke-width="1.5" x1="113.2053" x2="133.629" y1="177.1285" y2="200.0" /><line id="ray-b0.041" stroke="red" stroke-opacity="0.8" stroke-width="1.5" x1="113.9233" x2="0.0" y1="175.8849" y2="168.5347" /><line id="ray-b0.959" stroke="red" stroke-opacity="0.8" stroke-width="1.5" x1="113.9233" x2="136.2644" y1="175.8849" y2="200.0" /><line id="ray-b0.041" stroke="red" stroke-opacity="0.8" stroke-width="1.5" x1="114.6871" x2="0.0" y1="174.5619" y2="163.4398" /><line id="ray-b0.959" stroke="red" stroke-opacity="0.8" stroke-width="1.5" x1="114.6871" x2="139.2303" y1="174.5619" y2="200.0" /><line id="ray-b0.040" stroke="red" stroke-opacity="0.8" stroke-width="1.5" x1="115.5013" x2="0.0" y1="173.1517" y2="157.802" /><line id="ray-b0.960" stroke="red" stroke-opacity="0.8" stroke-width="1.5" x1="115.5013" x2="142.5968" y1="173.1517" y2="200.0" /><line id="ray-b0.040" stroke="red" stroke-opacity="0.8" stroke-width="1.5" x1="116.3711" x2="0.0" y1="171.6453" y2="151.5298" /><line id="ray-b0.960" stroke="red" stroke-opacity="0.8" stroke-width="1.5" x1="116.3711" x2="146.4546" y1="171.6453" y2="200.0" /><line id="ray-b0.040" stroke="red" stroke-opacity="0.8" stroke-width="1.5" x1="117.3023" x2="0.0" y1="170.0325" y2="144.5098" /><line id="ray-b0.960" stroke="red" stroke-opacity="0.8" stroke-width="1.5" x1="117.3023" x2="150.9234" y1="170.0325" y2="200.0" /><line id="ray-b0.148" stroke="red" stroke-opacity="0.8" stroke-width="1.5" x1="125.4574" x2="168.6159" y1="200.0" y2="145.6428" /><line id="ray-b0.809" stroke="red" stroke-opacity="0.8" stroke-width="1.5" x1="125.4574" x2="254.7901" y1="200.0" y2="250.0" /><line id="ray-b0.179" stroke="red" stroke-opacity="0.8" stroke-width="1.5" x1="127.2152" x2="169.8097" y1="200.0" y2="147.7104" /><line id="ray-b0.779" stroke="red" stroke-opacity="0.8" stroke-width="1.5" x1="127.2152" x2="275.1484" y1="200.0" y2="250.0" /><line id="ray-b0.229" stroke="red" stroke-opacity="0.8" stroke-width="1.5" x1="129.1433" x2="171.0885" y1="200.0" y2="149.9253" /><line id="ray-b0.730" stroke="red" stroke-opacity="0.8" stroke-width="1.5" x1="129.1433" x2="300.0" y1="200.0" y2="247.6753" /><line id="ray-b0.327" stroke="red" stroke-opacity="0.8" stroke-width="1.5" x1="131.2697" x2="172.4612" y1="200.0" y2="152.3028" /><line id="ray-b0.631" stroke="red" stroke-opacity="0.8" stroke-width="1.5" x1="131.2697" x2="300.0" y1="200.0" y2="233.8999" /><line id="ray-b0.751" stroke="red" stroke-opacity="0.8" stroke-width="1.5" x1="133.629" x2="173.9378" y1="200.0" y2="154.8602" /><line id="ray-b0.208" stroke="red" stroke-opacity="0.8" stroke-width="1.5" x1="133.629" x2="300.0" y1="200.0" y2="207.0728" /><line id="ray-b0.959" stroke="red" stroke-opacity="0.8" stroke-width="1.5" x1="136.2644" x2="175.5295" y1="200.0" y2="157.617" /><line id="ray-b0.959" stroke="red" stroke-opacity="0.8" stroke-width="1.5" x1="139.2303" x2="177.249" y1="200.0" y2="160.5953" /><line id="ray-b0.960" stroke="red" stroke-opacity="0.8" stroke-width="1.5" x1="142.5968" x2="179.1106" y1="200.0" y2="163.8195" /><line id="ray-b0.960" stroke="red" stroke-opacity="0.8" stroke-width="1.5" x1="146.4546" x2="181.1301" y1="200.0" y2="167.3173" /><line id="ray-b0.960" stroke="red" stroke-opacity="0.8" stroke-width="1.5" x1="150.9234" x2="183.3252" y1="200.0" y2="171.1193" /><line id="ray-b0.017" stroke="red" stroke-opacity="0.8" stroke-width="1.5" x1="168.6159" x2="127.8908" y1="145.6428" y2="151.6931" /><line id="ray-b0.139" stroke="red" stroke-opacity="0.8" stroke-width="1.5" x1="168.6159" x2="216.4373" y1="145.6428" y2="50.0" /><line id="ray-b0.020" stroke="red" stroke-opacity="0.8" stroke-width="1.5" x1="169.8097" x2="126.1194" y1="147.7104" y2="154.7611" /><line id="ray-b0.169" stroke="red" stroke-opacity="0.8" stroke-width="1.5" x1="169.8097" x2="221.2362" y1="147.7104" y2="50.0" /><line id="ray-b0.012" stroke="red" stroke-opacity="0.8" stroke-width="1.5" x1="171.0885" x2="124.1566" y1="149.9253" y2="158.1608" /><line id="ray-b0.217" stroke="red" stroke-opacity="0.8" stroke-width="1.5" x1="171.0885" x2="226.6026" y1="149.9253" y2="50.0" /><line id="ray-b0.016" stroke="red" stroke-opacity="0.8" stroke-width="1.5" x1="172.4612" x2="121.9696" y1="152.3028" y2="161.9487" /><line id="ray-b0.312" stroke="red" stroke-opacity="0.8" stroke-width="1.5" x1="172.4612" x2="232.6393" y1="152.3028" y2="50.0" /><line id="ray-b0.032" stroke="red" stroke-opacity="0.8" stroke-width="1.5" x1="173.9378" x2="119.5179" y1="154.8602" y2="166.195" /><line id="ray-b0.719" stroke="red" stroke-opacity="0.8" stroke-width="1.5" x1="173.9378" x2="239.4754" y1="154.8602" y2="50.0" /><line id="ray-b0.039" stroke="red" stroke-opacity="0.8" stroke-width="1.5" x1="175.5295" x2="116.7512" y1="157.617" y2="170.9869" /><line id="ray-b0.920" stroke="red" stroke-opacity="0.8" stroke-width="1.5" x1="175.5295" x2="247.2742" y1="157.617" y2="50.0" /><line id="ray-b0.039" stroke="red" stroke-opacity="0.8" stroke-width="1.5" x1="177.249" x2="113.6058" y1="160.5953" y2="176.4347" /><line id="ray-b0.921" stroke="red" stroke-opacity="0.8" stroke-width="1.5" x1="177.249" x2="256.2456" y1="160.5953" y2="50.0" /><line id="ray-b0.039" stroke="red" stroke-opacity="0.8" stroke-width="1.5" x1="179.1106" x2="110.0004" y1="163.8195" y2="182.6793" /><line id="ray-b0.921" stroke="red" stroke-opacity="0.8" stroke-width="1.5" x1="179.1106" x2="266.664" y1="163.8195" y2="50.0" /><line id="ray-b0.039" stroke="red" stroke-opacity="0.8" stroke-width="1.5" x1="181.1301" x2="105.8298" y1="167.3173" y2="189.9027" /><line id="ray-b0.921" stroke="red" stroke-opacity="0.8" stroke-width="1.5" x1="181.1301" x2="278.8945" y1="167.3173" y2="50.0" /><line id="ray-b0.039" stroke="red" stroke-opacity="0.8" stroke-width="1.5" x1="183.3252" x2="100.956" y1="171.1193" y2="198.3442" /><line id="ray-b0.921" stroke="red" stroke-opacity="0.8" stroke-width="1.5" x1="183.3252" x2="293.4337" y1="171.1193" y2="50.0" /><line id="ray-b0.014" stroke="red" stroke-opacity="0.8" stroke-width="1.5" x1="127.8908" x2="146.9664" y1="151.6931" y2="200.0" /><line id="ray-b0.013" stroke="red" stroke-opacity="0.8" stroke-width="1.5" x1="127.8908" x2="5.9267" y1="151.6931" y2="250.0" /><line id="ray-b0.014" stroke="red" stroke-opacity="0.8" stroke-width="1.5" x1="126.1194" x2="17.8351" y1="154.7611" y2="250.0" /><line id="ray-b0.008" stroke="red" stroke-opacity="0.8" stroke-width="1.5" x1="124.1566" x2="30.4309" y1="158.1608" y2="250.0" /><line id="ray-b0.009" stroke="red" stroke-opacity="0.8" stroke-width="1.5" x1="121.9696" x2="44.483" y1="161.9487" y2="250.0" /><line id="ray-b0.026" stroke="red" stroke-opacity="0.8" stroke-width="1.5" x1="119.5179" x2="130.654" y1="166.195" y2="200.0" /><line id="ray-b0.006" stroke="red" stroke-opacity="0.8" stroke-width="1.5" x1="119.5179" x2="66.3812" y1="166.195" y2="250.0" /><line id="ray-b0.039" stroke="red" stroke-opacity="0.8" stroke-width="1.5" x1="116.7512" x2="125.7234" y1="170.9869" y2="200.0" /><line id="ray-b0.039" stroke="red" stroke-opacity="0.8" stroke-width="1.5" x1="113.6058" x2="120.3732" y1="176.4347" y2="200.0" /><line id="ray-b0.039" stroke="red" stroke-opacity="0.8" stroke-width="1.5" x1="110.0004" x2="114.5556" y1="182.6793" y2="200.0" /><line id="ray-b0.039" stroke="red" stroke-opacity="0.8" stroke-width="1.5" x1="105.8298" x2="108.2172" y1="189.9027" y2="200.0" /><line id="ray-b0.039" stroke="red" stroke-opacity="0.8" stroke-width="1.5" x1="100.956" x2="101.2991" y1="198.3442" y2="200.0" /><line id="ray-b0.013" stroke="red" stroke-opacity="0.8" stroke-width="1.5" x1="146.9664" x2="179.9736" y1="200.0" y2="250.0" /><line id="ray-b0.025" stroke="red" stroke-opacity="0.8" stroke-width="1.5" x1="130.654" x2="157.2287" y1="200.0" y2="250.0" /><line id="ray-b0.010" stroke="red" stroke-opacity="0.8" stroke-width="1.5" x1="125.7234" x2="151.6306" y1="200.0" y2="116.2242" /><line id="ray-b0.037" stroke="red" stroke-opacity="0.8" stroke-width="1.5" x1="125.7234" x2="150.4411" y1="200.0" y2="250.0" /><line id="ray-b0.037" stroke="red" stroke-opacity="0.8" stroke-width="1.5" x1="120.3732" x2="143.1154" y1="200.0" y2="250.0" /><line id="ray-b0.037" stroke="red" stroke-opacity="0.8" stroke-width="1.5" x1="114.5556" x2="135.1919" y1="200.0" y2="250.0" /><line id="ray-b0.037" stroke="red" stroke-opacity="0.8" stroke-width="1.5" x1="108.2172" x2="126.604" y1="200.0" y2="250.0" /><line id="ray-b0.037" stroke="red" stroke-opacity="0.8" stroke-width="1.5" x1="101.2991" x2="117.2775" y1="200.0" y2="250.0" /><line id="ray-b0.010" stroke="red" stroke-opacity="0.8" stroke-width="1.5" x1="151.6306" x2="148.748" y1="116.2242" y2="115.5685" /><line id="ray-b0.010" stroke="red" stroke-opacity="0.8" stroke-width="1.5" x1="148.748" x2="0.0" y1="115.5685" y2="105.9715" /></g><g id="labels" transform="scale(1, -1)"><text fill="blue" font-family="sans-serif" font-size="12px" text-anchor="middle" transform="scale(1, -1)" x="150.0" y="205.0">Prism</text></g></svg>